<svg xmlns="http://www.w3.org/2000/svg" width="270" height="24" viewBox="0 0 270 24">
    <g fill="none" fill-rule="evenodd">
        <g fill="#FFF">
            <path d="M29.898 18.906c.714-.17 1.157-.816 1.157-1.36V5.144c0-.51-.408-1.155-1.157-1.36v-.44c.374 0 1.974.067 2.382.067.476 0 2.178-.068 2.553-.068v.442c-.715.17-1.192.816-1.192 1.36v5.062h9.837V5.144c0-.543-.409-1.19-1.158-1.36v-.44c.375 0 2.042.067 2.52.067.407 0 2.041-.068 2.415-.068v.442c-.714.17-1.191.816-1.191 1.36v12.401c0 .51.443 1.156 1.191 1.36v.441c-.374 0-2.008-.068-2.416-.068-.477 0-2.144.068-2.519.068v-.441c.715-.17 1.158-.816 1.158-1.36v-5.98H33.64v5.98c0 .544.443 1.156 1.192 1.36v.441c-.375 0-2.077-.068-2.553-.068-.408 0-2.008.068-2.382.068v-.441M59.917 13.367l-2.689-6.354-2.859 6.354h5.548zm-10.755 5.539c.919-.238 1.293-.918 1.702-1.767L56.41 5.076c.238-.51.579-1.869.579-1.869h1.668s.374 1.36.578 1.87l5.071 12.095c.375.85.75 1.462 1.804 1.734v.407c-.579 0-2.212-.034-2.62-.034-.409 0-1.94.034-2.519.034v-.407c.783-.238.885-.714.817-1.054-.034-.17-.238-.713-.307-.883l-1.02-2.277H53.79l-1.021 2.277c-.069.17-.273.713-.307.883-.068.34.204.816.987 1.054v.407c-.51 0-1.633-.034-1.974-.034h-2.314v-.373zM71.898 11.09c.51.069 1.395.103 2.144.103 3.029 0 3.982-1.734 3.982-3.263 0-2.174-1.498-3.635-4.152-3.635-.545 0-1.43.067-1.974.17v6.625zm-3.88 7.816c.85-.17 1.293-.85 1.293-1.394V5.144c0-.51-.375-1.19-1.294-1.36v-.44c.511 0 2.145.067 2.621.067.783 0 3.064-.17 3.948-.17 3.131 0 6.262 1.326 6.262 4.724 0 2.038-1.633 3.567-4.05 4.179l4.119 4.757c.612.713 1.463 1.597 2.246 2.005v.373c-2.348.34-3.438.17-4.833-1.427l-4.697-5.436c-.647 0-1.225-.034-1.735-.102v5.198c0 .51.442 1.19 1.361 1.394v.441c-.51 0-2.213-.068-2.689-.068-.408 0-2.042.068-2.553.068v-.441zM84.49 5.076c-.34-.781-.612-1.087-1.395-1.291v-.442c.579 0 2.144.068 2.587.068.409 0 2.008-.068 2.62-.068v.442c-.544.102-1.123.408-1.123.883 0 .204.17.578.238.782l4.493 10.635 4.595-10.363a1.95 1.95 0 0 0 .136-1.087c-.068-.408-.238-.714-.919-.85v-.442c.545 0 1.702.068 2.11.068.375 0 1.532-.068 2.11-.068v.442c-.85.17-1.19.646-1.531 1.393l-6.466 14.407h-1.362L84.491 5.076M110.528 13.367l-2.69-6.354-2.858 6.354h5.548zm-10.756 5.539c.92-.238 1.294-.918 1.702-1.767l5.548-12.063c.238-.51.579-1.869.579-1.869h1.667s.375 1.36.579 1.87l5.071 12.095c.374.85.748 1.462 1.804 1.734v.407c-.579 0-2.212-.034-2.621-.034-.408 0-1.94.034-2.518.034v-.407c.782-.238.884-.714.816-1.054-.034-.17-.238-.713-.306-.883l-1.021-2.277h-6.671l-1.02 2.277c-.069.17-.273.713-.307.883-.068.34.204.816.987 1.054v.407c-.51 0-1.634-.034-1.974-.034h-2.315v-.373zM122.508 11.09c.51.069 1.395.103 2.144.103 3.03 0 3.982-1.734 3.982-3.263 0-2.174-1.497-3.635-4.152-3.635-.544 0-1.43.067-1.974.17v6.625zm-3.88 7.816c.851-.17 1.294-.85 1.294-1.394V5.144c0-.51-.375-1.19-1.294-1.36v-.44c.51 0 2.144.067 2.62.067.784 0 3.064-.17 3.949-.17 3.131 0 6.262 1.326 6.262 4.724 0 2.038-1.633 3.567-4.05 4.179l4.118 4.757c.613.713 1.464 1.597 2.247 2.005v.373c-2.348.34-3.438.17-4.833-1.427l-4.697-5.436c-.647 0-1.226-.034-1.736-.102v5.198c0 .51.443 1.19 1.361 1.394v.441c-.51 0-2.212-.068-2.688-.068-.409 0-2.042.068-2.553.068v-.441zM139.662 18.09c.578.102 1.702.17 2.553.17 4.492 0 7.317-2.752 7.317-6.762 0-3.84-2.893-7.203-7.181-7.203-.919 0-2.076.067-2.689.17V18.09zm-3.88.816c.92-.17 1.294-.884 1.294-1.428V5.144c0-.51-.409-1.19-1.294-1.36v-.44c.51 0 2.145.067 2.62.067.783 0 3.166-.17 4.868-.17 5.41 0 9.087 3.636 9.087 8.36 0 4.586-3.71 7.814-9.087 7.814-1.702 0-4.085-.136-4.867-.136-.476 0-2.11.068-2.62.068v-.441zM161.172 18.906c.919-.17 1.293-.884 1.293-1.428V5.144c0-.646-.374-1.155-1.395-1.36v-.44c.374 0 2.246.067 2.722.067.41 0 2.315-.068 2.69-.068v.442c-.988.238-1.43.68-1.43 1.36V17.92h4.935c1.668 0 2.485-.577 3.165-1.936l.443.101-.443 3.33c-1.531-.136-2.45-.136-4.186-.136h-5.174c-.476 0-2.11.068-2.62.068v-.441M176.648 18.906c1.021-.204 1.43-.714 1.43-1.36V5.144c0-.646-.409-1.155-1.43-1.36v-.44c.374 0 2.315.067 2.79.067.41 0 2.315-.068 2.69-.068v.442c-.987.238-1.464.68-1.464 1.36v12.401c0 .68.477 1.122 1.464 1.36v.441c-.375 0-2.28-.068-2.69-.068-.475 0-2.416.068-2.79.068v-.441M189.817 18.056c.544.102 1.36.136 1.905.136 2.451 0 3.949-1.223 3.949-3.33 0-2.073-1.805-3.33-3.88-3.33h-1.974v6.524zm1.327-7.747c2.246 0 3.676-.68 3.676-2.888 0-1.835-1.294-3.126-3.506-3.126-.545 0-.987.067-1.497.17v5.844h1.327zm-5.207 8.597c.919-.17 1.293-.884 1.293-1.428V5.144c0-.51-.409-1.19-1.293-1.36v-.44c.51 0 2.144.067 2.62.067.783 0 2.791-.17 3.676-.17 3.097 0 5.411 1.326 5.411 4.078 0 1.8-1.259 2.99-2.824 3.534 2.144.645 3.675 2.242 3.675 4.077 0 3.432-3.131 4.485-6.228 4.485-.885 0-2.927-.136-3.71-.136-.476 0-2.11.068-2.62.068v-.441zM205.721 11.09c.51.069 1.396.103 2.144.103 3.03 0 3.983-1.734 3.983-3.263 0-2.174-1.498-3.635-4.153-3.635-.544 0-1.43.067-1.974.17v6.625zm-3.88 7.816c.851-.17 1.294-.85 1.294-1.394V5.144c0-.51-.375-1.19-1.294-1.36v-.44c.51 0 2.145.067 2.62.067.783 0 3.064-.17 3.949-.17 3.131 0 6.262 1.326 6.262 4.724 0 2.038-1.633 3.567-4.05 4.179l4.118 4.757c.613.713 1.464 1.597 2.247 2.005v.373c-2.349.34-3.438.17-4.834-1.427l-4.696-5.436c-.647 0-1.225-.034-1.736-.102v5.198c0 .51.443 1.19 1.361 1.394v.441c-.51 0-2.211-.068-2.688-.068-.408 0-2.042.068-2.553.068v-.441zM229.767 13.367l-2.689-6.354-2.858 6.354h5.547zm-10.755 5.539c.92-.238 1.293-.918 1.702-1.767l5.548-12.063c.238-.51.578-1.869.578-1.869h1.668s.374 1.36.579 1.87l5.07 12.095c.375.85.75 1.462 1.805 1.734v.407c-.58 0-2.213-.034-2.621-.034-.408 0-1.94.034-2.518.034v-.407c.782-.238.884-.714.816-1.054-.034-.17-.238-.713-.306-.883l-1.021-2.277h-6.67l-1.022 2.277c-.068.17-.272.713-.307.883-.068.34.205.816.988 1.054v.407c-.51 0-1.634-.034-1.974-.034h-2.315v-.373zM242.755 11.09c.51.069 1.395.103 2.144.103 3.03 0 3.982-1.734 3.982-3.263 0-2.174-1.497-3.635-4.152-3.635-.544 0-1.43.067-1.974.17v6.625zm-3.88 7.816c.851-.17 1.294-.85 1.294-1.394V5.144c0-.51-.375-1.19-1.293-1.36v-.44c.51 0 2.144.067 2.62.067.783 0 3.063-.17 3.948-.17 3.131 0 6.262 1.326 6.262 4.724 0 2.038-1.633 3.567-4.05 4.179l4.118 4.757c.613.713 1.464 1.597 2.247 2.005v.373c-2.349.34-3.438.17-4.833-1.427l-4.697-5.436c-.647 0-1.225-.034-1.736-.102v5.198c0 .51.443 1.19 1.361 1.394v.441c-.51 0-2.212-.068-2.688-.068-.408 0-2.042.068-2.552.068v-.441zM259.02 18.906c.92-.17 1.362-.85 1.362-1.394v-5.504l-4.492-6.252c-.579-.815-1.362-1.665-2.11-1.971v-.442c.579 0 2.076.068 2.518.068.409 0 1.94-.068 2.553-.068v.442c-.375.068-.545.51-.545.646 0 .17.034.51.272.849l3.642 5.13 3.642-5.062c.34-.476.409-.781.409-1.02 0-.101-.17-.475-.681-.543v-.442c.51 0 1.736.068 2.076.068.34 0 1.566-.068 2.076-.068v.442c-1.089.476-1.94 1.36-2.723 2.447l-4.05 5.64v5.64c0 .544.408 1.224 1.328 1.394v.441c-.511 0-2.213-.068-2.69-.068-.408 0-2.008.068-2.586.068v-.441"/>
        </g>
        <path fill="#A51C30" d="M.158.308H19.57v7.316c0 3.352-1.25 10.46-9.633 15.75 0 0-9.084-3.784-9.78-15.75V.308"/>
        <path fill="#1E1E1E" d="M.294.444v7.18c.651 11.213 8.823 15.228 9.632 15.597 8.58-5.447 9.509-12.718 9.509-15.597V.444H.294zM9.95 23.527l-.065-.027C9.793 23.462.715 19.545.022 7.632V.172h19.684v7.452c0 2.93-.944 10.342-9.696 15.866l-.06.037z"/>
        <path fill="#FFFFFE" d="M15.03 10.013s-.172.55-.943-.016l-2.643-.063s-.346.11-.393-.251c0 0 .063-.722.032-.785 0 0 .015-.205-.331-.205 0 0-.535.063-.55-.408 0 0-.094-.503.645-.488 0 0 .236.111.25-.188 0 0-.03-2.041-.014-2.198 0 0 .063-.188-.299-.22 0 0-.52.11-.582-.235 0 0-.031-.518.314-.55 0 0 .425.032.504-.078 0 0 .094.062.078-.313l.016-.646s.046-.171.315-.156c0 0 .487.032.55-.015 0 0 .11-.142.142-.205 0 0 .252-.015.299.047 0 0 .377.251 1.808.158 0 0 .221 0 .268.062 0 0 .267.204.425-.015 0 0 .235-.047.942-.032 0 0 .772.204 1.307-.235l.173.03s.22.361.377.252c0 0 .472-.047.551.047 0 0 .157.235.078.848 0 0-.095.267.363.267 0 0 .519-.094.455.392 0 0 .142.55-.723.472 0 0-.11.157-.095.267 0 0-.015 1.79-.032 1.994 0 0-.015.283.363.267 0 0 .503-.032.52.424 0 0 .061.597-.662.487 0 0-.22.031-.252.173l-.032.785s.017.392-.424.298c-.062 0-2.453.048-2.658-.015 0 0-.11-.016-.142.047M9.923 12.675s.11-.046.14-.125c0 0 .33-.031.379-.079l1.039.08s1.021.078 1.462-.237c0 0 .158 0 .267.047 0 0 .22.047.283.142l.598-.017s.346.11.314.331v.282s-.062.566.094.597h.457s.378.173.33.393c0 0 .016.314-.314.376 0 0-.33.094-.44.08 0 0-.11.14-.127.313l-.047 2.057s-.031.22.299.188c0 0 .487-.046.63.221 0 0 .126.455-.127.534l-.188.094-.41.063s-.172.015-.187.313v.55s.015.377-.284.377l-.44.031s-.11.094-.33.032c0 0-2.674.047-2.77.016l-.314.063s-.345.313-.629.078l-.22-.173s-.157.032-.22.016-2.957.032-2.957.032-.614.063-.66-.142c0 0-.08-.801-.047-.895 0 0 0-.236-.143-.251 0 0-.613-.032-.629-.095 0 0-.33-.235-.236-.47 0 0 .11-.315.44-.346 0 0 .504.079.504-.063 0 0 .032-.094.032-.251 0 0 .032-1.869.016-1.995 0 0 .047-.235-.158-.235 0 0-.22.062-.362-.032 0 0-.378.016-.456-.282 0 0-.063-.188.031-.347 0 0 .173-.345.677-.234 0 0 .284.078.315-.126l-.016-.754s-.063-.203.33-.313c0 0 .504.14.66-.11 0 0 .174-.346.315-.11 0 0 .3.283 1.117.251 0 0 1.415-.11 1.446-.047 0 0 .347.047.441.156l.095.016M5.626 10.05s-.174.55-.945-.015L2.04 9.97s-.346.111-.393-.25c0 0 .063-.722.03-.786 0 0 .017-.204-.33-.204 0 0-.534.063-.549-.408 0 0-.096-.503.644-.487 0 0 .236.11.252-.188 0 0-.032-2.042-.016-2.2 0 0 .064-.187-.299-.218 0 0-.52.11-.58-.236 0 0-.034-.518.313-.55 0 0 .424.032.503-.078 0 0 .095.063.08-.315l.015-.643s.047-.173.314-.157c0 0 .488.03.552-.016 0 0 .109-.141.14-.204 0 0 .252-.015.3.048 0 0 .377.25 1.809.156 0 0 .22 0 .267.063 0 0 .267.204.424-.016 0 0 .236-.047.944-.031 0 0 .77.204 1.305-.235l.174.031s.22.361.377.251c0 0 .471-.047.55.047 0 0 .158.236.08.848 0 0-.096.267.36.267 0 0 .52-.094.457.392 0 0 .142.55-.723.472 0 0-.111.157-.095.267 0 0-.016 1.79-.031 1.993 0 0-.016.284.361.269 0 0 .504-.033.52.423 0 0 .062.597-.661.487 0 0-.22.031-.251.172l-.033.786s.016.393-.424.298c-.063 0-2.453.047-2.657-.015 0 0-.111-.015-.142.046"/>
        <path fill="#1E1E1E" d="M15.03 10.013s-.172.55-.943-.016l-2.643-.063s-.346.11-.393-.251c0 0 .063-.722.032-.785 0 0 .015-.205-.331-.205 0 0-.535.063-.55-.408 0 0-.094-.503.645-.488 0 0 .236.111.25-.188 0 0-.03-2.041-.014-2.198 0 0 .063-.188-.299-.22 0 0-.52.11-.582-.235 0 0-.031-.518.314-.55 0 0 .425.032.504-.078 0 0 .094.062.078-.313l.016-.646s.046-.171.315-.156c0 0 .487.032.55-.015 0 0 .11-.142.142-.205 0 0 .252-.015.299.047 0 0 .377.251 1.808.158 0 0 .221 0 .268.062 0 0 .267.204.425-.015 0 0 .235-.047.942-.032 0 0 .772.204 1.307-.235l.173.03s.22.361.377.252c0 0 .472-.047.551.047 0 0 .157.235.078.848 0 0-.095.267.363.267 0 0 .519-.094.455.392 0 0 .142.55-.723.472 0 0-.11.157-.095.267 0 0-.015 1.79-.032 1.994 0 0-.015.283.363.267 0 0 .503-.032.52.424 0 0 .061.597-.662.487 0 0-.22.031-.252.173l-.032.785s.017.392-.424.298c-.062 0-2.453.048-2.658-.015 0 0-.11-.016-.142.047"/>
        <path fill="#1E1E1E" d="M11.435 9.866h.011l2.663.063.017.013c.274.2.501.279.659.227a.296.296 0 0 0 .18-.177l.004-.01c.052-.104.197-.086.213-.084.062.019.412.052 2.547.017l.101-.002c.133.027.222.016.28-.032.08-.068.077-.194.077-.196l.031-.79c.043-.197.299-.236.31-.238l.01-.001.01.001c.215.034.375.003.472-.089.13-.122.112-.321.111-.324a.344.344 0 0 0-.104-.256c-.131-.118-.341-.107-.343-.106-.15.008-.266-.03-.343-.107a.327.327 0 0 1-.091-.232c.016-.2.031-1.973.031-1.99-.018-.123.094-.288.107-.306l.023-.032.039.003c.291.027.496-.019.593-.132a.309.309 0 0 0 .058-.255l-.003-.013.002-.012c.015-.116-.005-.2-.06-.252-.106-.1-.314-.066-.316-.065h-.007c-.204 0-.335-.048-.4-.14a.249.249 0 0 1-.032-.217c.07-.559-.07-.786-.07-.788-.031-.027-.252-.038-.473-.018a.182.182 0 0 1-.128.018c-.138-.03-.266-.204-.313-.274l-.113-.02c-.553.43-1.31.237-1.342.229-.554-.012-.813.018-.888.029a.286.286 0 0 1-.182.103c-.162.023-.315-.092-.321-.097l-.013-.013c-.02-.018-.121-.035-.214-.036-1.432.095-1.83-.158-1.846-.169l-.017-.015a.564.564 0 0 0-.204-.021c-.044.07-.119.166-.128.18l-.013.012c-.069.051-.362.044-.596.029-.178-.01-.231.075-.242.1l-.016.635c.01.22-.015.332-.084.37a.094.094 0 0 1-.038.013c-.126.096-.434.082-.533.075-.264.025-.241.474-.241.478.01.053.038.097.086.13.122.081.34.059.414.043l.01-.002h.01c.166.015.278.064.331.146.052.08.029.155.026.164-.01.11.01 1.609.019 2.175-.006.124-.045.206-.116.248-.084.051-.18.023-.218.009-.236-.004-.4.049-.49.154-.097.112-.074.248-.073.254.004.12.039.201.106.26.138.118.366.094.369.093h.002c.16 0 .272.037.34.11a.237.237 0 0 1 .065.155c.017.09.006.357-.032.798.01.07.041.13.091.162.087.056.213.019.214.018l.01-.003zm3.247.455c-.175 0-.382-.086-.619-.257l-2.61-.062c-.043.011-.193.042-.315-.036-.086-.055-.138-.147-.154-.274.028-.344.05-.716.035-.77l-.008-.017.004-.012s0-.035-.031-.067c-.042-.042-.122-.065-.232-.065-.005 0-.283.032-.466-.125a.458.458 0 0 1-.152-.349s-.034-.194.103-.355c.119-.14.326-.21.61-.202l.028.006s.066.028.106.004c.028-.018.046-.065.05-.134-.002-.08-.032-2.043-.016-2.202.004-.015.009-.038-.008-.062-.017-.025-.069-.067-.22-.082-.057.01-.33.053-.506-.066a.332.332 0 0 1-.146-.226c-.013-.21.05-.6.375-.63.217.016.424-.008.454-.05l.039-.053.016.01a.844.844 0 0 0 .011-.227l.016-.65c.005-.025.067-.24.387-.223.2.013.442.015.502-.002.035-.046.104-.138.125-.18l.018-.035.038-.002c.103-.006.277-.006.347.06.05.027.471.229 1.76.144.076-.007.251.008.32.08.022.016.121.08.214.067a.16.16 0 0 0 .109-.072l.015-.021.026-.006c.01-.002.251-.048.958-.033.023.004.76.191 1.262-.22l.024-.02.233.042.017.026c.05.083.161.221.241.239.016.003.027 0 .04-.007l.014-.01.017-.002c.153-.015.518-.04.61.07.012.017.174.27.093.9-.003.016-.019.066.012.109.039.053.14.082.284.082-.001-.001.264-.047.421.101.086.082.12.202.103.356a.44.44 0 0 1-.09.363c-.123.144-.347.205-.667.183-.033.056-.07.137-.063.186 0 .084-.014 1.805-.03 2.009 0 0-.002.074.053.129.048.048.128.07.238.065.01 0 .267-.015.441.142a.47.47 0 0 1 .15.347c0 .006.024.262-.153.43-.128.122-.322.165-.577.128-.051.01-.17.047-.186.12l-.03.772c0 .003.007.188-.125.3-.09.076-.219.097-.381.063l-.085.003c-2.386.039-2.531-.006-2.579-.02-.022-.003-.053.005-.06.01a.435.435 0 0 1-.41.28z"/>
        <path fill="#FFFFFE" d="M12.057 3.542s.032.315.032.393l-.048 4.539s.048.345-.251.517c0 0-.079.031-.094-.188l.031-4.71s.032-.582.33-.551"/>
        <path fill="#A9A5C0" d="M12.026 3.575a.16.16 0 0 0-.099.04c-.145.125-.166.476-.166.48l-.03 4.708c.007.112.032.144.042.153.275-.153.236-.465.235-.478l.047-4.543c0-.062-.02-.28-.029-.36zm-.247 5.451a.074.074 0 0 1-.04-.012c-.044-.027-.069-.096-.077-.209l.03-4.713c.002-.017.024-.385.192-.528a.233.233 0 0 1 .177-.056l.027.003.003.028c.001.013.032.317.032.396l-.047 4.539s.045.365-.269.547a.074.074 0 0 1-.028.005z"/>
        <path fill="#FFFFFE" d="M11.54 9.04s.03-4.43.015-4.508c-.016-.079.015.063.015.063s-.047-.77.157-1.084c0 0-.063-.266-.425.063l-.015.644s0 .361-.33.345c0 0-.378-.016-.551.157 0 0-.095.345.268.283 0 0 .565 0 .597.235l-.032 2.371s.126.395-.314.395c0 0-.536-.034-.52.297 0 0 .111.282.567.188 0 0 .33.062.315.377v.596s-.032.237.283.252h2.454s.126.016.126-.141c0 0-.016-.126-.204-.126L11.9 9.416s-.331.11-.362-.377"/>
        <path fill="#FFFFFE" d="M11.964 9.07s-.063.22.172.173h1.62l.44.095s.456-.11 0-.361c0 0-1.446.014-1.573-.016l-.362-.095s-.156-.063-.297.204"/>
        <path fill="#A9A5C0" d="M13.757 9.21l.44.093c.047-.013.16-.056.168-.115.004-.027-.015-.086-.177-.177-.133.001-1.447.013-1.572-.017l-.363-.095c-.009-.002-.134-.046-.258.183-.005.024-.013.082.014.111.027.029.08.025.12.017h1.628zm.44.163l-.447-.097h-1.614c-.076.017-.139.004-.177-.037-.06-.065-.03-.174-.028-.179l.003-.006c.153-.29.333-.222.34-.22l.358.094c.1.024 1.163.019 1.565.015h.008l.008.004c.159.087.23.17.22.25-.017.12-.206.168-.228.174l-.008.002z"/>
        <path fill="#FFFFFE" d="M14.652 9.29s-.298 0-.282.393c0 0 .031.298.346.298 0 0 .282-.047.251-.361 0 0-.173-.392-.315-.33M14.873 9.133s.142-.156.236-.156c0 0 1.573.14 1.84-.048 0 0 .236-.047.3 0 0 0 .235.189.235.299 0 0-.016.14-.299.062l-1.871.016s-.488.11-.44-.173"/>
        <path fill="#A9A5C0" d="M14.905 9.149c-.005.042.004.073.028.096.079.074.296.046.373.028l1.88-.017h.004l.004.001c.134.037.198.022.228.004.025-.016.028-.037.028-.038 0-.063-.137-.198-.223-.267-.03-.023-.16-.015-.265.005-.29.187-1.792.056-1.856.05-.052 0-.148.081-.2.138zm.216.212c-.085 0-.178-.014-.235-.067-.042-.04-.058-.097-.046-.167l.001-.01.007-.006c.016-.018.155-.168.26-.168.439.039 1.61.107 1.821-.041l.013-.006c.042-.009.255-.048.327.006.026.02.25.203.25.326a.123.123 0 0 1-.057.087c-.06.04-.155.043-.281.009l-1.867.016a.895.895 0 0 1-.193.021z"/>
        <path fill="#FFFFFE" d="M15.125 9.604s0-.126.22-.126l2.201-.016s.206.11.206-.266c0 0 .08-1.711.088-3.597.002-.56.028-1.149.007-1.695 0 0-.049-.235-.112-.283 0 0 0-.252.268-.157 0 0 .236.016.173.378l.016.548s-.047.237.378.173c0 0 .424.064.44.22 0 0 .126.314-.377.282h-.362s-.158.094-.11.283l-.048 2.278s-.031.392.346.378c0 0 .394-.017.472.108 0 0 .268.393-.314.362 0 0-.363-.016-.44.046 0 0-.064.08-.111.818 0 0 .032.439-.298.392 0 0-2.187.032-2.39-.016 0 0-.222.063-.253-.11M12.294 3.4l-.047 5.04s-.017.236.376.283c0 0 .457.047.567 0 0 0 .3-.016 1.07.017 0 0 .19.189.204-.048 0 0 .126-4.083.063-4.931 0 0-.015-.361-.283-.377 0 0-1.195.095-1.306 0l-.471-.125s-.19.016-.173.14"/>
        <path fill="#FFFFFE" d="M14.78 3.651s-.049 2.371-.033 2.45l-.03 1.994-.065.691s.095.143.174.048c0 0 .503-.127.818-.078 0 0 1.007.093 1.21-.064 0 0 .159.078.205-.172 0 0 .062-4.397.033-4.476 0 0 .061-.629.03-.692 0 0-.015-.14-.283-.015 0 0 .031.126-1.462.078 0 0-.567-.015-.598.236M17.28 3.59l-.016 4.961s.126.44.33.394c0 0 .03-.094.047-.252l.063-4.727s-.158-.753-.424-.376"/>
        <path fill="#A9A5C0" d="M17.298 8.547c.033.11.137.367.267.367h.003c.009-.035.028-.114.04-.224l.062-4.724c-.034-.157-.127-.425-.23-.447-.039-.008-.081.02-.126.082l-.016 4.946zm.266.436c-.21 0-.327-.404-.333-.422l-.001-.005v-.005l.016-4.972.006-.01c.065-.09.134-.13.2-.116.182.038.275.458.286.507l-.063 4.734a1.428 1.428 0 0 1-.048.262l-.007.018-.018.004a.16.16 0 0 1-.038.005z"/>
        <path fill="#1E1E1E" d="M15.35 5.075c-.048-.126.267-.141.267-.141l.156.032c.11-.017.221.03.221.03.11.173-.079.267-.079.267l-.062.205c-.016.172 0 1.664 0 1.664.03.078.157.22.157.22 0 .14-.173.11-.173.11l-.457.016c-.14-.016-.094-.173-.094-.173.158-.079.204-.362.204-.362V5.389l-.14-.314M13.242 5.295c.015.345.015.816.015.816.3.236.472-.094.472-.094.393-.377 0-.722-.063-.817-.064-.094-.378-.016-.378-.016l-.046.11zm-.016 1.24l-.032.488.142.234c.094.126-.064.221-.064.221l-.503-.047c-.093-.048 0-.205 0-.205.127-.078.142-.283.142-.283l-.015-.91.015-.66c0-.078-.126-.22-.126-.22-.11-.015-.078-.157-.078-.157.03-.078.299-.03.299-.03h.66c.629.203.534.658.534.658.048.456-.44.645-.44.645l-.031.25.456.722c.079.064.063.126.063.126-.063.174-.314 0-.314 0l-.567-.88c-.047-.062-.141.048-.141.048zM10.064 12.55s.33-.031.378-.079l1.039.08s1.021.078 1.462-.237c0 0 .158 0 .267.047 0 0 .22.047.283.142l.598-.017s.346.11.314.331v.282s-.062.566.094.597h.457s.378.173.33.393c0 0 .016.314-.314.376 0 0-.33.094-.44.08 0 0-.11.14-.127.313l-.047 2.057s-.031.22.299.188c0 0 .487-.046.63.221 0 0 .126.455-.127.534l-.188.094-.41.063s-.172.015-.187.313v.55s.015.377-.284.377l-.44.031s-.11.094-.33.032c0 0-2.674.047-2.77.016l-.314.063s-.345.313-.629.078l-.22-.173s-.157.032-.22.016-2.957.032-2.957.032-.614.063-.66-.142c0 0-.08-.801-.047-.895 0 0 0-.236-.143-.251 0 0-.613-.032-.629-.095 0 0-.33-.235-.236-.47 0 0 .11-.315.44-.346 0 0 .504.079.504-.063 0 0 .032-.094.032-.251 0 0 .032-1.869.016-1.995 0 0 .047-.235-.158-.235 0 0-.22.062-.362-.032 0 0-.378.016-.456-.282 0 0-.063-.188.031-.347 0 0 .173-.345.677-.234 0 0 .284.078.315-.126l-.016-.754s-.063-.203.33-.313c0 0 .504.14.66-.11 0 0 .174-.346.315-.11 0 0 .3.283 1.117.251 0 0 1.415-.11 1.446-.047 0 0 .347.047.441.156l.095.016s.11-.046.14-.125z"/>
        <path fill="#1E1E1E" d="M9.405 19.229l.245.192c.237.197.538-.071.54-.074l.015-.013.35-.07.018.005c.103.02 1.7 0 2.747-.019h.01l.01.003c.176.05.263-.016.267-.019l.016-.013.022-.002.442-.032c.062 0 .107-.017.141-.052.084-.087.079-.252.079-.254v-.553c.019-.356.24-.38.25-.38l.395-.061.178-.09c.193-.061.092-.451.091-.455-.094-.172-.434-.183-.558-.17-.142.013-.246-.015-.31-.082a.23.23 0 0 1-.062-.184l.046-2.05a.743.743 0 0 1 .141-.353l.024-.031.039.005c.07.01.29-.042.413-.077a.3.3 0 0 0 .265-.308v-.009l.001-.008c.028-.13-.185-.265-.28-.311h-.44c-.21-.04-.183-.484-.162-.673v-.274c.02-.15-.207-.243-.258-.262l-.623.016-.02-.031c-.033-.049-.16-.095-.241-.112a.74.74 0 0 0-.233-.046c-.464.31-1.446.24-1.488.236l-1.016-.077c-.073.036-.222.06-.353.073a.38.38 0 0 1-.156.123l-.018.008-.14-.023-.015-.018c-.054-.062-.265-.116-.399-.134l-.04-.014c-.133-.02-.794.015-1.392.062-.84.033-1.156-.258-1.169-.27l-.011-.015c-.01-.015-.032-.052-.054-.049-.042.002-.111.093-.142.155-.166.268-.618.175-.72.15-.295.088-.267.22-.266.225l.019.771a.222.222 0 0 1-.097.166c-.116.075-.286.031-.304.026-.444-.098-.596.197-.598.2a.399.399 0 0 0-.027.294c.064.245.376.236.389.236h.022l.018.012c.114.075.304.024.306.023l.018-.002c.095 0 .148.04.176.075.066.08.056.193.05.23.014.193-.013 1.806-.016 1.993a.96.96 0 0 1-.033.262.124.124 0 0 1-.044.082c-.11.094-.439.052-.537.036-.266.027-.364.298-.365.301-.074.184.208.39.21.393l.022.016c.072.027.343.054.572.066.164.018.207.208.207.319l-.004.021c-.016.06.013.488.05.867.018.078.323.108.586.081 1.09-.018 2.918-.046 2.98-.03a.695.695 0 0 0 .19-.016l.03-.007zm.44.4a.428.428 0 0 1-.28-.103l-.195-.152a.653.653 0 0 1-.218.01c-.084-.01-1.806.015-2.94.033-.107.012-.67.057-.728-.193-.02-.193-.074-.782-.049-.918-.001-.045-.018-.17-.081-.177-.535-.027-.647-.077-.676-.118-.07-.054-.346-.288-.245-.54.004-.01.128-.353.497-.387.21.03.414.028.446-.005 0-.013.028-.1.028-.242.012-.75.027-1.897.016-1.987v-.02c.005-.023.01-.094-.019-.13-.005-.005-.02-.023-.063-.025-.048.012-.242.052-.388-.032-.156 0-.434-.068-.503-.333a.525.525 0 0 1 .038-.398s.202-.387.75-.267c.036.01.142.028.197-.008.012-.008.03-.023.035-.06l-.016-.737a.242.242 0 0 1 .028-.16c.055-.1.173-.177.352-.227l.019-.005.018.005c.126.035.478.09.583-.08.016-.033.117-.22.256-.224.043-.005.111.015.169.105.043.035.349.255 1.062.228 1.08-.084 1.375-.075 1.466-.046.072.011.34.056.457.16l.052.009c.028-.015.074-.046.087-.08l.015-.038.042-.004c.139-.013.309-.042.34-.063l.022-.021.028.005 1.039.079c.01 0 1.002.072 1.417-.225l.018-.012h.022c.007 0 .173 0 .295.053.025.004.198.045.286.135l.577-.016.01.004c.017.005.4.13.362.405v.272c-.03.274-.002.512.04.53h.458l.014.006c.043.019.417.199.37.46a.434.434 0 0 1-.37.436c-.046.014-.284.08-.419.082a.593.593 0 0 0-.093.25l-.046 2.054c-.001.008-.006.05.024.08.035.035.104.048.199.04.022-.003.535-.048.697.255.011.035.145.533-.166.631l-.198.096-.41.063c-.007.001-.118.02-.13.25v.547c0 .006.008.22-.117.349a.312.312 0 0 1-.235.095l-.418.03c-.046.029-.168.085-.361.033-.774.014-2.512.041-2.757.016l-.287.058a.694.694 0 0 1-.422.17z"/>
        <path fill="#FFFFFE" d="M10.331 18.847s.19-.095.316-.063c.126.031 1.966-.015 1.966-.015s.802.062.927-.048l.189-.063s.079-.094.079-.22c0-.125.016-.55.016-.55l.047-.156s-.015-.157 0-4.35c0 0 .063-.33-.142-.534 0 0 0-.125.063-.11.064.017.032.017.032.017s.283-.08.33.03c0 0 .126.376.015.596 0 0-.031.457.206.457 0 0 .094.094.282.047 0 0 .41.047.41.172 0 0 0 .283-.284.236l-.378.031s-.252.048-.22.345c.032.3-.016 2.434-.016 2.434s0 .253.394.237c0 0 .488-.016.488.125 0 0 .125.314-.22.33 0 0-.662-.016-.614.172 0 0-.048.44-.079.518 0 0 .064.362-.016.425 0 0-.047.204-.472.172 0 0-2.705-.015-3.129.015 0 0-.253-.03-.19-.25M9.845 18.55s.267.046.267.297c0 .25.015.392-.143.424-.156.03-.33-.016-.376-.22-.049-.204.032-.455.252-.502"/>
        <path fill="#FFFFFE" d="M10.159 18.422s.283-.188.393-.156c0 0 1.431.094 1.872.016.44-.079.173-.016.173-.016s.377 0 .488-.141c0 0 .11-.031.172.078l.236.253s.016.155-.251.14c0 0-2.565 0-2.642.015 0 0-.488.079-.441-.189"/>
        <path fill="#A9A5C0" d="M10.19 18.442a.1.1 0 0 0 .027.086c.078.078.299.063.377.05.078-.016 2.385-.016 2.648-.016.092.004.159-.01.192-.044a.085.085 0 0 0 .025-.05l-.226-.242c-.044-.074-.106-.074-.13-.07-.127.143-.49.144-.506.144l-.001-.013-.167.029c-.439.077-1.821-.012-1.88-.016-.073-.02-.252.073-.359.142zm.264.214c-.099 0-.22-.015-.285-.08-.04-.042-.055-.095-.043-.16l.002-.014.012-.008c.05-.033.302-.196.421-.16.013 0 1.426.09 1.857.015.257-.047.282-.051.29-.023.124-.012.29-.045.35-.122l.007-.01.01-.002a.188.188 0 0 1 .212.094l.238.255.002.011c0 .006.005.062-.043.112-.047.05-.13.072-.245.066-1.02 0-2.565.004-2.633.015-.006 0-.072.011-.152.011z"/>
        <path fill="#FFFFFE" d="M6.431 12.848s.11 0 .094.189l-.032 4.742s.048.315-.22.518c0 0-.141.173-.141-.094l.063-4.836s.016-.362.236-.519"/>
        <path fill="#A9A5C0" d="M6.44 12.884c-.194.15-.21.481-.21.485l-.064 4.835c0 .102.022.114.022.114.01.003.038-.016.06-.042a.555.555 0 0 0 .212-.492l.032-4.748c.006-.08-.011-.117-.026-.134a.06.06 0 0 0-.026-.018zm-.25 5.502a.075.075 0 0 1-.025-.004c-.06-.021-.067-.112-.067-.179l.063-4.837c0-.016.02-.381.25-.545l.01-.007h.01c.005 0 .048.001.084.04.036.04.051.102.044.185l-.032 4.74a.607.607 0 0 1-.233.545c-.005.008-.053.062-.105.062z"/>
        <path fill="#FFFFFE" d="M6.18 12.88s-.19.345-.173.424l-.017 1.052s-.016.675 0 .753c.017.08-.016 2.058-.016 2.058s-.015.376 0 .503v.847s-.03.377.253.282c0 0 2.768-.062 2.941-.015 0 0 .251.047.158.174 0 0 0 .109-.174.077 0 0-1.306.125-2.486.079 0 0-.786.046-.833-.047 0 0-.125-.016-.125-.471 0 0 0-.424-.032-.502 0 0 .032-.221-.362-.268 0 0-.55.094-.566-.236 0 0 .079-.234.613-.203 0 0 .394.063.315-.252l.047-2.324s.048-.408-.22-.424c0 0-.251-.015-.33.016 0 0-.457 0-.425-.267 0 0 .157-.283.613-.22 0 0 .347.062.362-.33 0 0-.015-.8.174-.831 0 0 .393.014.282.125"/>
        <path fill="#FFFFFE" d="M6.65 18.077a.8.8 0 0 0 .584.22l2.137.031s.237.017.222.142c0 0-.033.188-.315.126l-2.58-.032-.283.016s-.188-.03.11-.393l.126-.11"/>
        <path fill="#A9A5C0" d="M6.696 18.53l2.582.032c.102.022.175.015.224-.018a.135.135 0 0 0 .058-.08.046.046 0 0 0-.012-.038c-.037-.045-.145-.062-.18-.064l-2.135-.03a.837.837 0 0 1-.583-.209l-.102.09c-.166.201-.163.283-.154.309.007.02.025.024.027.025l.275-.017zm2.688.112a.536.536 0 0 1-.113-.013l-2.573-.03-.281.015a.107.107 0 0 1-.086-.068c-.031-.081.024-.205.168-.38l.154-.136.023.024c.002.002.202.21.524.21h.032l2.14.03c.018.001.166.014.228.089a.118.118 0 0 1 .027.091c-.001.005-.014.078-.087.126a.275.275 0 0 1-.156.042z"/>
        <path fill="#FFFFFE" d="M13.257 17.873s.189.36.283.41c0 0 .174.202.126-.158L13.7 13.6s-.049-.156 0-.408l-.19-.345s-.205-.158-.205.094l-.031 4.822-.016.109"/>
        <path fill="#1E1E1E" d="M13.293 17.866c.072.137.203.355.263.386l.01.008c.022.025.051.046.061.046h.001s.025-.022.005-.177l.032-4.524a.95.95 0 0 1-.002-.406l-.18-.328c-.027-.02-.084-.048-.112-.034-.022.01-.033.048-.033.106l-.031 4.82-.014.103zm.335.507c-.047 0-.093-.046-.11-.064-.101-.062-.271-.384-.29-.42l-.006-.01.017-.12.03-4.817c0-.086.024-.143.071-.166.078-.038.179.037.19.045l.009.011.196.356-.003.012a.89.89 0 0 0 0 .39v.01l-.032 4.525c.02.144.006.22-.045.243a.066.066 0 0 1-.027.005z"/>
        <path fill="#FFFFFE" d="M9.766 15.72s.016.377-.032.738c-.026.197.063 1.116-.016 1.587 0 0-.015.157-.347.016 0 0-2.012.048-2.075-.016 0 0-.55.016-.598-.267 0 0 .079-2.151.032-2.232 0 0-.032-1.177 0-1.286 0 0 .047-1.083.015-1.21 0 0 .016-.25-.03-.377 0 0 0-.156.266-.062 0 0 .094.173.614.094 0 0 .377.063.74.016 0 0 .802-.063 1.006 0 0 0 .315-.063.409.284l-.016.973.094.314.111-.079.046-.235.016-1.037s.063-.189.314-.22c0 0 .394-.048.458-.016.062.032.91.079 1.148.032.236-.047.282.157.99-.204 0 0 .19.015.19.14 0 0-.065 1.336 0 1.587 0 0 0 2.45-.048 2.623l.032.785s.03.345-.52.377c0 0 .347.048-1.825-.016 0 0-.346-.016-.723.157 0 0-.078-.016-.078-.22 0 0 .062-.737 0-1.46l-.032-.8-.14.015"/>
        <path fill="#1E1E1E" d="M8.35 14.607s.047 1.162 0 1.319l-.016.251s.063.173.158.236c0 0 .078.22-.11.204 0 0-.393-.032-.488-.016 0 0-.22 0 0-.282 0 0 .078-.11.063-.393 0 0 0-1.319.032-1.397 0 0 .03-.173-.08-.22l-.189.015-.235.22s-.048.236-.158-.015v-.126l.142-.378.094-.015s.142.095.268.126h.74l.267-.126s.109.015.08.157c0 0 .045.362-.16.408 0 0-.125-.046-.188-.219 0 0-.204-.11-.22.251M11.825 14.183s-.596-.047-.612.597c0 0-.064.44.597.723 0 0 .489.235.457.533 0 0-.064.534-.583.268 0 0-.251-.127-.235-.268 0 0-.08-.172-.173-.14 0 0-.111.03-.063.548 0 0 0 .204.236 0l.125.032s.425.346.786-.079c0 0 .394-.36.11-.8 0 0-.203-.315-.565-.471 0 0-.347-.158-.424-.425 0 0 .11-.471.533-.22 0 0 .158.188.253.22 0 0 .125 0 .093-.283l-.03-.235s-.031-.173-.252 0c0 0-.205.078-.253 0M9.656 14.889c-.016.08-.127.518-.127.518l.096.158s.25.015.344.015c.095 0 .111-.077.111-.156 0-.078-.173-.55-.173-.55l-.079-.094-.172.109zm.251-1.036c.11.079.126.236.126.236.315.832.582 2.041.582 2.041.079.157.22.283.22.283.267.094 0 .172 0 .172-.11.047-.471-.015-.471-.015-.19-.031-.111-.094-.111-.094.078-.079.015-.393.015-.393-.015-.125-.156-.33-.156-.33-.063-.031-.173.11-.173.11s-.173.063-.19 0c-.015-.063-.124-.125-.124-.125-.19 0-.269.47-.269.47.11.393 0 .33 0 .33-.094.126-.393.032-.393.032-.141-.031-.046-.142-.046-.142.172-.031.22-.22.22-.22.078-.11.58-2.151.58-2.151.05-.095.08-.283.19-.204zM5.626 10.05s-.174.55-.945-.015L2.04 9.97s-.346.111-.393-.25c0 0 .063-.722.03-.786 0 0 .017-.204-.33-.204 0 0-.534.063-.549-.408 0 0-.096-.503.644-.487 0 0 .236.11.252-.188 0 0-.032-2.042-.016-2.2 0 0 .064-.187-.299-.218 0 0-.52.11-.58-.236 0 0-.034-.518.313-.55 0 0 .424.032.503-.078 0 0 .095.063.08-.315l.015-.643s.047-.173.314-.157c0 0 .488.03.552-.016 0 0 .109-.141.14-.204 0 0 .252-.015.3.048 0 0 .377.25 1.809.156 0 0 .22 0 .267.063 0 0 .267.204.424-.016 0 0 .236-.047.944-.031 0 0 .77.204 1.305-.235l.174.031s.22.361.377.251c0 0 .471-.047.55.047 0 0 .158.236.08.848 0 0-.096.267.36.267 0 0 .52-.094.457.392 0 0 .142.55-.723.472 0 0-.111.157-.095.267 0 0-.016 1.79-.031 1.993 0 0-.016.284.361.269 0 0 .504-.033.52.423 0 0 .062.597-.661.487 0 0-.22.031-.251.172l-.033.786s.016.393-.424.298c-.063 0-2.453.047-2.657-.015 0 0-.111-.015-.142.046"/>
        <path fill="#1E1E1E" d="M2.03 9.904l2.674.063.017.013c.273.2.5.278.658.227.139-.045.181-.176.182-.178l.004-.01c.051-.102.195-.085.212-.082.061.018.412.05 2.545.016l.103-.002c.133.027.222.016.278-.032.082-.068.078-.194.078-.195l.033-.792c.042-.196.298-.234.31-.236l.009-.002.01.002c.215.033.374.003.471-.09.13-.122.112-.321.112-.323a.346.346 0 0 0-.104-.256c-.132-.119-.342-.108-.343-.107-.152.005-.267-.03-.343-.107a.328.328 0 0 1-.091-.232c.015-.2.03-1.973.031-1.991-.019-.122.094-.286.107-.305l.023-.032.039.004c.29.027.495-.02.592-.131a.312.312 0 0 0 .06-.257l-.004-.013.002-.012c.014-.115-.006-.2-.06-.251-.106-.1-.315-.066-.318-.066-.205-.003-.34-.046-.406-.14a.25.25 0 0 1-.031-.216c.07-.559-.07-.787-.072-.788-.03-.029-.25-.04-.47-.019a.183.183 0 0 1-.129.019c-.138-.03-.266-.204-.312-.274l-.114-.02c-.554.429-1.309.236-1.341.227-.555-.01-.814.018-.89.028a.29.29 0 0 1-.18.105c-.161.024-.316-.092-.323-.097l-.013-.013a.502.502 0 0 0-.212-.036c-1.435.095-1.83-.157-1.847-.168l-.016-.015a.53.53 0 0 0-.206-.023c-.043.07-.117.167-.127.18l-.013.013c-.07.05-.363.043-.596.028-.18-.012-.231.076-.242.103l-.016.632c.01.221-.016.334-.084.372a.096.096 0 0 1-.04.013c-.124.095-.433.082-.532.074-.264.025-.24.473-.24.478.01.052.038.098.086.13.146.098.411.045.414.044l.01-.002h.01c.166.015.278.064.331.145a.194.194 0 0 1 .025.164c-.009.106.009 1.471.02 2.176-.007.124-.046.206-.117.248-.084.05-.18.023-.217.009-.239-.008-.403.048-.492.154-.095.111-.071.25-.071.252.005.121.039.203.106.26.137.119.367.094.369.093h.003c.16 0 .27.038.339.111a.233.233 0 0 1 .064.155c.017.09.007.357-.031.798.01.07.042.13.092.163.087.054.21.017.212.017l.011-.003zm3.246.454c-.174 0-.381-.086-.618-.256l-2.61-.062c-.044.011-.193.042-.315-.036-.086-.054-.138-.147-.155-.275.029-.343.05-.715.036-.77l-.01-.016.005-.014s0-.034-.03-.065c-.042-.043-.122-.065-.232-.065-.004 0-.283.032-.466-.126a.455.455 0 0 1-.152-.348s-.035-.194.102-.355c.119-.14.323-.207.611-.202l.028.007s.064.028.105.003c.037-.022.048-.085.05-.133-.001-.08-.032-2.043-.016-2.203.003-.016.01-.038-.008-.062-.017-.025-.067-.067-.22-.081-.057.01-.329.052-.506-.066a.335.335 0 0 1-.145-.227c-.014-.21.049-.6.374-.63.218.016.425-.008.455-.05l.038-.052.017.011a.877.877 0 0 0 .011-.23l.016-.649c.005-.025.065-.244.386-.223.201.013.443.015.504-.003.034-.045.102-.137.122-.179l.018-.035.04-.003c.101-.006.277-.005.347.062.05.028.472.228 1.761.142h.002c.078 0 .249.01.316.081.023.016.122.081.215.066a.16.16 0 0 0 .108-.072l.015-.021.027-.006c.01-.002.25-.047.959-.032.023.004.759.191 1.26-.22l.025-.02.234.043.016.026c.05.083.16.221.241.238.015.003.027 0 .039-.007l.015-.01.017-.002c.153-.016.517-.04.61.071.011.016.175.27.094.9-.004.015-.02.066.011.109.039.052.139.082.282.082 0-.001.266-.048.423.101.086.082.12.201.103.355.01.05.03.222-.09.363-.122.144-.348.206-.667.183-.034.056-.07.136-.062.186 0 .084-.016 1.805-.032 2.009 0 0 0 .074.054.128.048.05.129.072.238.067.01-.001.268-.016.44.141a.47.47 0 0 1 .15.348c0 .006.025.261-.153.43-.128.122-.322.164-.576.128-.051.01-.17.046-.185.118l-.03.774c0 .002.006.188-.127.3-.091.075-.22.096-.381.062l-.086.002c-2.384.039-2.529-.005-2.576-.019-.02-.002-.052.004-.06.01a.434.434 0 0 1-.412.28z"/>
        <path fill="#FFFFFE" d="M2.653 3.58s.03.314.03.393l-.047 4.539s.048.346-.25.518c0 0-.08.032-.096-.189l.032-4.71s.03-.581.33-.55"/>
        <path fill="#A9A5C0" d="M2.622 3.614a.162.162 0 0 0-.1.04c-.146.125-.166.475-.166.479L2.324 8.84c.009.116.036.147.043.153.276-.152.237-.465.235-.478l.048-4.543c0-.062-.02-.28-.028-.36zm-.248 5.45a.072.072 0 0 1-.04-.01c-.044-.028-.07-.096-.077-.21l.031-4.713c.001-.018.022-.385.19-.528a.23.23 0 0 1 .178-.056l.028.003.002.027c.002.014.032.317.032.396l-.048 4.54s.046.365-.268.546a.074.074 0 0 1-.028.006z"/>
        <path fill="#FFFFFE" d="M2.133 9.077s.032-4.428.016-4.507c-.016-.079.016.063.016.063s-.047-.769.157-1.083c0 0-.063-.268-.424.062l-.016.644s0 .361-.33.346c0 0-.378-.016-.552.156 0 0-.094.346.268.283 0 0 .567 0 .598.235l-.031 2.372s.125.393-.316.393c0 0-.534-.032-.519.298 0 0 .11.283.567.189 0 0 .331.062.315.376v.597s-.032.236.283.251h2.454s.126.016.126-.142c0 0-.017-.124-.205-.124l-2.044-.032s-.331.11-.363-.377"/>
        <path fill="#FFFFFE" d="M2.558 9.108s-.062.22.173.172h1.62l.441.094s.456-.109 0-.36c0 0-1.447.016-1.574-.015 0 0-.298-.08-.361-.095 0 0-.158-.063-.299.204"/>
        <path fill="#A9A5C0" d="M4.351 9.247l.44.093c.049-.013.162-.056.17-.114.003-.028-.015-.087-.177-.178-.186.002-1.45.014-1.574-.016 0 0-.298-.08-.361-.095-.009-.003-.137-.046-.259.183-.006.025-.013.083.014.112.026.028.08.024.12.015H4.35zm.442.162l-.449-.095H2.731c-.077.017-.139.005-.176-.036-.061-.065-.031-.175-.03-.18l.003-.006c.153-.29.334-.222.342-.22l.357.094c.1.025 1.163.018 1.565.014H4.8l.008.004c.158.087.23.17.219.25-.016.12-.206.168-.228.174l-.007.001z"/>
        <path fill="#FFFFFE" d="M5.248 9.329s-.299 0-.283.392c0 0 .03.298.345.298 0 0 .284-.048.253-.361 0 0-.174-.393-.315-.33M5.468 9.171s.141-.157.236-.157c0 0 1.573.142 1.84-.046 0 0 .237-.048.3 0 0 0 .235.188.235.297 0 0-.015.143-.298.064l-1.872.015s-.489.11-.44-.173"/>
        <path fill="#A9A5C0" d="M5.5 9.187c-.005.042.004.073.028.096.079.074.296.046.373.028l1.88-.016h.005l.004.001c.133.037.197.022.227.003.025-.016.028-.038.028-.038 0-.063-.137-.198-.223-.267-.03-.023-.16-.015-.264.005-.291.188-1.793.054-1.857.049-.053 0-.148.082-.2.139zm.216.213c-.085 0-.178-.015-.234-.068-.043-.04-.059-.097-.047-.166l.001-.01.007-.007c.016-.018.154-.17.26-.17.438.04 1.61.11 1.822-.04l.013-.005c.042-.008.255-.047.326.007.026.02.25.202.25.324a.125.125 0 0 1-.058.089c-.06.04-.154.043-.28.009l-1.867.015a.94.94 0 0 1-.193.022z"/>
        <path fill="#FFFFFE" d="M5.72 9.642s0-.125.219-.125l2.204-.016s.203.11.203-.267c0 0 .08-1.712.089-3.597.002-.56.027-1.149.005-1.695 0 0-.047-.235-.11-.283 0 0 0-.25.268-.157 0 0 .236.016.172.377l.016.55s-.046.234.378.173c0 0 .425.061.44.22 0 0 .127.314-.377.282h-.362s-.157.094-.11.283l-.047 2.277s-.032.392.346.377c0 0 .393-.016.472.11 0 0 .268.392-.315.36 0 0-.362-.015-.44.048 0 0-.063.079-.11.815 0 0 .03.441-.3.394 0 0-2.186.031-2.39-.016 0 0-.22.063-.251-.11M2.888 3.439l-.047 5.04s-.016.235.377.283c0 0 .457.047.567 0 0 0 .298-.016 1.07.016 0 0 .189.188.204-.048 0 0 .126-4.082.063-4.931 0 0-.016-.36-.284-.376 0 0-1.195.094-1.305 0l-.472-.126s-.19.015-.173.142"/>
        <path fill="#FFFFFE" d="M7.875 3.627L7.859 8.59s.125.44.33.393c0 0 .032-.094.048-.252L8.3 4.004s-.157-.753-.425-.377"/>
        <path fill="#A9A5C0" d="M7.893 8.585c.032.11.137.368.267.368h.003c.01-.035.029-.115.04-.225l.063-4.724c-.034-.157-.127-.425-.23-.447-.038-.008-.081.02-.127.081l-.016 4.947zm.266.436c-.21 0-.328-.404-.333-.422l-.001-.004V8.59l.016-4.973.006-.01c.065-.091.134-.13.202-.116.181.038.274.459.284.506L8.27 8.731c-.016.164-.047.26-.048.263l-.006.018-.019.005a.193.193 0 0 1-.038.004z"/>
        <path fill="#FFFFFE" d="M5.374 3.67s-.048 2.37-.032 2.45l-.03 1.994-.064.69s.094.142.173.048c0 0 .503-.126.818-.079 0 0 1.007.095 1.211-.063 0 0 .158.08.205-.172 0 0 .062-4.397.031-4.476 0 0 .064-.628.03-.69 0 0-.014-.143-.281-.017 0 0 .031.127-1.463.079 0 0-.567-.015-.598.235"/>
        <path fill="#1E1E1E" d="M4.889 5.122l-.142.3s-.345 1.521-.534 1.835c0 0-.032.315-.3.063 0 0-.613-1.93-.645-1.993l-.204-.143s-.125-.172.094-.188l.583.016s.188.157-.063.33c0 0 .032.251.362 1.21 0 0 .094.36.204.093L4.56 5.53l-.095-.33s-.095-.157.048-.173c0 0 .33-.03.377.095M5.802 5.373l-.017 1.665-.046.125s-.158.204-.049.22c0 0-.14.095 1.008.11 0 0 .44.08.33-.487 0 0-.047-.204-.204.095 0 0-.048.25-.614.172 0 0-.125-.11-.125-.235v-.69s-.016-.174.25-.157c0 0 .3.187.348.108 0 0 .109-.251 0-.408 0 0-.143-.015-.159.047 0 0-.094.189-.361.08 0 0-.125-.252-.047-.456 0 0-.031-.393.236-.362 0 0 .314.063.346.158 0 0 .078.188.158-.031l-.08-.268s-.046-.11-.125-.078c0 0-.535.078-.598.015l-.425.047s-.063.157.126.235c0 0 .048.033.048.095"/>
    </g>
</svg>