<?xml version="1.0" encoding="UTF-8"?>
<svg width="164px" height="145px" viewBox="0 0 164 145" version="1.1" xmlns="http://www.w3.org/2000/svg" xmlns:xlink="http://www.w3.org/1999/xlink">
    <!-- Generator: Sketch 54.1 (76490) - https://sketchapp.com -->
    <title>Group</title>
    <desc>Created with Sketch.</desc>
    <g id="Page-1" stroke="none" stroke-width="1" fill="none" fill-rule="evenodd">
        <g id="Group" transform="translate(-8.000000, 0.000000)" fill="#1D1D1D">
            <ellipse id="Oval" transform="translate(26.554973, 29.124792) rotate(-40.000000) translate(-26.554973, -29.124792) " cx="26.5549729" cy="29.1247919" rx="15" ry="22"></ellipse>
            <ellipse id="Oval" transform="translate(105.963805, 29.127110) rotate(-40.000000) translate(-105.963805, -29.127110) " cx="105.963805" cy="29.1271103" rx="15" ry="22"></ellipse>
            <ellipse id="Oval" transform="translate(66.463805, 29.127110) rotate(40.000000) translate(-66.463805, -29.127110) " cx="66.463805" cy="29.1271103" rx="15" ry="22"></ellipse>
            <polygon id="Path" points="11 49.63 42.0214961 60.8777121 42.0214961 144.913144 11 133.545197"></polygon>
            <polygon id="Path" points="90.3318109 49.6323184 121.353307 60.8800305 121.353307 144.915462 90.3318109 133.547515"></polygon>
            <polygon id="Path" transform="translate(66.342559, 97.273890) scale(-1, 1) translate(-66.342559, -97.273890) " points="50.8318109 49.6323184 81.8533071 60.8800305 81.8533071 144.915462 50.8318109 133.547515"></polygon>
            <path d="M128.831811,45.8204628 L140.153875,49.8348755 L140.153875,34.3841149 C140.060299,33.5390873 139.953759,32.9510611 139.834255,32.6200365 C139.199271,30.8611346 138.036512,29.3361676 136.908275,28.6706052 C135.461537,27.8171548 132.769382,27.7255012 128.831811,28.3956442 L128.831811,0 C135.885662,0.755548248 140.802177,1.60520233 143.581357,2.54896224 C150.371367,4.85472796 155.600361,8.78040871 158.770393,11.8262511 C162.002542,14.9317768 166.565003,20.2730255 169.048416,28.0297877 C170.013535,31.0442659 170.765769,36.3862342 171.305119,44.0556926 L171.305119,144.915462 L140.283623,133.547515 C140.283623,102.593987 140.283623,83.5468073 140.283623,76.4059752 C140.283623,76.0977863 128.831811,71.2479703 128.831811,70.9535832 C128.831811,66.7597004 128.831811,58.3819937 128.831811,45.8204628 Z" id="Path" transform="translate(150.068465, 72.457731) scale(-1, 1) translate(-150.068465, -72.457731) "></path>
        </g>
    </g>
</svg>