<?xml version="1.0" encoding="UTF-8"?>
<svg width="19px" height="19px" viewBox="0 0 19 19" version="1.1" xmlns="http://www.w3.org/2000/svg" xmlns:xlink="http://www.w3.org/1999/xlink">
    <!-- Generator: Sketch 48.2 (47327) - http://www.bohemiancoding.com/sketch -->
    <title>Archival Items </title>
    <desc>Created with Sketch.</desc>
    <defs></defs>
    <g id="DL-Icons-1" stroke="none" stroke-width="1" fill="none" fill-rule="evenodd" transform="translate(-3.000000, 0.000000)">
        <g fill="#A51C30" fill-rule="nonzero" id="Archival-Items-">
            <g transform="translate(2.000000, 0.000000)">
                <path d="M19.27,6.56 L1.51,6.56 C1.32342786,6.56201192 1.14855855,6.46929799 1.0455276,6.31374146 C0.942496655,6.15818493 0.925355958,5.9610014 1,5.79 L3.22,0.35 C3.30430201,0.141513238 3.50514446,0.00368018255 3.73,0 L17,0 C17.2248555,0.00368018255 17.425698,0.141513238 17.51,0.35 L19.73,5.8 C19.8002155,5.96996285 19.7808416,6.16377242 19.6783715,6.31647299 C19.5759014,6.46917356 19.4038947,6.56055852 19.22,6.56 L19.27,6.56 Z M2.34,5.45 L18.44,5.45 L16.67,1.11 L4.11,1.11 L2.34,5.45 Z" id="Shape"></path>
                <path d="M19.27,10.28 L1.51,10.28 C1.22196626,10.2589975 0.999235297,10.0187974 1,9.73 L1,6 C1,5.69624339 1.24624339,5.45 1.55,5.45 L19.27,5.45 C19.5737566,5.45 19.82,5.69624339 19.82,6 L19.82,9.73 C19.82,10.0337566 19.5737566,10.28 19.27,10.28 Z M2.07,9.17 L18.71,9.17 L18.71,6.56 L2.07,6.56 L2.07,9.17 Z" id="Shape"></path>
                <path d="M18.16,18.86 L2.62,18.86 C2.31624339,18.86 2.07,18.6137566 2.07,18.31 L2.07,9.73 C2.07,9.42624339 2.31624339,9.18 2.62,9.18 L18.16,9.18 C18.4637566,9.18 18.71,9.42624339 18.71,9.73 L18.71,18.31 C18.71,18.6137566 18.4637566,18.86 18.16,18.86 Z M3.16,17.75 L17.6,17.75 L17.6,10.28 L3.18,10.28 L3.16,17.75 Z" id="Shape"></path>
                <path d="M12.29,12.94 L8.49,12.94 C8.18348196,12.94 7.935,12.691518 7.935,12.385 C7.935,12.078482 8.18348196,11.83 8.49,11.83 L12.28,11.83 C12.586518,11.83 12.835,12.078482 12.835,12.385 C12.835,12.691518 12.586518,12.94 12.28,12.94 L12.29,12.94 Z" id="Shape"></path>
            </g>
        </g>
    </g>
</svg>