<?xml version="1.0" encoding="UTF-8"?>
<svg width="17px" height="22px" viewBox="0 0 17 22" version="1.1" xmlns="http://www.w3.org/2000/svg" xmlns:xlink="http://www.w3.org/1999/xlink">
    <!-- Generator: Sketch 48.2 (47327) - http://www.bohemiancoding.com/sketch -->
    <title>Books</title>
    <desc>Created with Sketch.</desc>
    <defs></defs>
    <g id="DL-Icons-1" stroke="none" stroke-width="1" fill="none" fill-rule="evenodd" transform="translate(-3.000000, -65.000000)">
        <g fill="#A51C30" fill-rule="nonzero" id="Books">
            <g transform="translate(3.000000, 65.000000)">
                <path d="M15.9,4.9 L2.74,4.9 C1.87672216,5.03066264 1.01701611,4.64317377 0.543162714,3.90983597 C0.0693093198,3.17649818 0.0693093198,2.23350182 0.543162714,1.50016403 C1.01701611,0.766826233 1.87672216,0.37933736 2.74,0.51 L15.35,0.51 C15.99,0.51 16.54,0.51 16.54,1.16 C16.5349723,1.3548271 16.4440944,1.53747121 16.2917213,1.65898389 C16.1393483,1.78049657 15.9410609,1.82845267 15.75,1.79 L2.75,1.79 C2.06,1.79 1.48,2.21 1.48,2.72 C1.48,3.23 2.06,3.65 2.75,3.65 L15.9,3.65 C16.2507008,3.65 16.535,3.93429918 16.535,4.285 C16.535,4.63570082 16.2507008,4.92 15.9,4.92 L15.9,4.9 Z" id="Shape"></path>
                <path d="M15.9,21.89 L3.37,21.89 C1.61925734,21.89 0.2,20.4707427 0.2,18.72 L0.2,2.79 C0.2,2.43929918 0.484299184,2.155 0.835,2.155 C1.18570082,2.155 1.47,2.43929918 1.47,2.79 L1.47,18.72 C1.47,19.769341 2.32065898,20.62 3.37,20.62 L15.9,20.62 C16.2507008,20.62 16.535,20.9042992 16.535,21.255 C16.535,21.6057008 16.2507008,21.89 15.9,21.89 Z" id="Shape"></path>
                <path d="M13.37,13.89 L4,13.89 C3.65206061,13.89 3.37,13.6079394 3.37,13.26 L3.37,8.14 C3.3673201,7.97118775 3.43250995,7.80836374 3.55094958,7.68804412 C3.66938921,7.56772449 3.83116648,7.49997873 4,7.5 L13.36,7.5 C13.7079394,7.5 13.99,7.78206061 13.99,8.13 L13.99,13.25 C13.9926733,13.4170925 13.928849,13.5784012 13.812572,13.6984291 C13.6962949,13.818457 13.5370932,13.8873688 13.37,13.89 Z M4.64,12.62 L12.73,12.62 L12.73,8.77 L4.64,8.77 L4.64,12.62 Z" id="Shape"></path>
                <path d="M15.9,21.89 C15.5520606,21.89 15.27,21.6079394 15.27,21.26 L15.27,4.26 C15.27,3.90929918 15.5542992,3.625 15.905,3.625 C16.2557008,3.625 16.54,3.90929918 16.54,4.26 L16.54,21.26 C16.5400213,21.4288335 16.4722755,21.5906108 16.3519559,21.7090504 C16.2316363,21.82749 16.0688123,21.8926799 15.9,21.89 Z" id="Shape"></path>
            </g>
        </g>
    </g>
</svg>