<?xml version="1.0" encoding="UTF-8"?>
<svg width="18px" height="24px" viewBox="0 0 18 24" version="1.1" xmlns="http://www.w3.org/2000/svg" xmlns:xlink="http://www.w3.org/1999/xlink">
    <!-- Generator: Sketch 48.2 (47327) - http://www.bohemiancoding.com/sketch -->
    <title>Drawings &amp; Illustrations </title>
    <desc>Created with Sketch.</desc>
    <defs></defs>
    <g id="DL-Icons-1" stroke="none" stroke-width="1" fill="none" fill-rule="evenodd" transform="translate(-3.000000, -97.000000)">
        <g fill="#A51C30" fill-rule="nonzero" id="Drawings-&amp;-Illustrations-">
            <g transform="translate(3.000000, 97.000000)">
                <path d="M9.39,23.48 C9.01996922,23.48 8.72,23.1800308 8.72,22.81 C8.72,15.52 1.2,8.4 1.13,8.33 C0.961650254,8.17757717 0.881971684,7.95025107 0.918323825,7.72607954 C0.954675966,7.501908 1.10210965,7.31141092 1.31,7.22 C5.98,5.13 4.79,1.64 4.74,1.49 C4.60469024,1.14206061 4.77706061,0.750309764 5.125,0.615 C5.47293939,0.479690236 5.86469024,0.652060608 6,1 C6,1 7.48,5.32 2.72,8 C4.66,10 10.06,16.2 10.06,22.79 C10.0654094,22.9711344 9.99721568,23.1467352 9.87097523,23.2767441 C9.74473477,23.4067529 9.57121518,23.4800808 9.39,23.48 Z" id="Shape"></path>
                <path d="M9.39,23.48 C9.01996922,23.48 8.72,23.1800308 8.72,22.81 C8.72,16.22 14.12,10.04 16.06,8.02 C11.3,5.36 12.76,1.08 12.78,1.02 C12.9042641,0.669299206 13.2892992,0.485735974 13.64,0.610000038 C13.9907008,0.734264101 14.174264,1.11929919 14.05,1.47 C14,1.62 12.85,5.13 17.48,7.2 C17.6878904,7.29141092 17.835324,7.481908 17.8716762,7.70607954 C17.9080283,7.93025107 17.8283497,8.15757717 17.66,8.31 C17.58,8.38 10.07,15.51 10.07,22.79 C10.0754833,22.9728831 10.0059361,23.1500532 9.87750789,23.2803701 C9.74907963,23.410687 9.57294371,23.482813 9.39,23.48 Z" id="Shape"></path>
                <path d="M9.39,23.48 C9.01996922,23.48 8.72,23.1800308 8.72,22.81 L8.72,10.39 C8.72,10.0172078 9.02220779,9.715 9.395,9.715 C9.76779221,9.715 10.07,10.0172078 10.07,10.39 L10.07,22.8 C10.0727248,22.9811688 10.0019575,23.1557171 9.87383731,23.2838373 C9.74571714,23.4119575 9.57116879,23.4827248 9.39,23.48 Z" id="Shape"></path>
                <path d="M9.39,11.07 C8.36275037,11.07 7.53,10.2372496 7.53,9.21 C7.53,8.18275037 8.36275037,7.35 9.39,7.35 C10.4172496,7.35 11.25,8.18275037 11.25,9.21 C11.25,10.2372496 10.4172496,11.07 9.39,11.07 Z M9.39,8.7 C9.10833478,8.7 8.88,8.92833478 8.88,9.21 C8.88,9.49166522 9.10833478,9.72 9.39,9.72 C9.67166522,9.72 9.9,9.49166522 9.9,9.21 C9.90268649,9.07301535 9.85014284,8.94071095 9.75420656,8.84289357 C9.65827028,8.74507619 9.52701098,8.68997366 9.39,8.69 L9.39,8.7 Z" id="Shape"></path>
                <path d="M16.44,1.94 L2.34,1.94 C1.96720779,1.94 1.665,1.63779221 1.665,1.265 C1.665,0.892207794 1.96720779,0.59 2.34,0.59 L16.44,0.59 C16.8127922,0.59 17.115,0.892207794 17.115,1.265 C17.115,1.63779221 16.8127922,1.94 16.44,1.94 Z" id="Shape"></path>
            </g>
        </g>
    </g>
</svg>