<?xml version="1.0" encoding="UTF-8"?>
<svg width="21px" height="22px" viewBox="0 0 21 22" version="1.1" xmlns="http://www.w3.org/2000/svg" xmlns:xlink="http://www.w3.org/1999/xlink">
    <!-- Generator: Sketch 48.2 (47327) - http://www.bohemiancoding.com/sketch -->
    <title>Manuscripts </title>
    <desc>Created with Sketch.</desc>
    <defs></defs>
    <g id="DL-Icons-1" stroke="none" stroke-width="1" fill="none" fill-rule="evenodd" transform="translate(-2.000000, -133.000000)">
        <g fill="#A51C30" fill-rule="nonzero" id="Manuscripts-">
            <g transform="translate(2.000000, 133.000000)">
                <path d="M4.16,5.37 C3.82862915,5.37 3.56,5.10137085 3.56,4.77 L3.56,2.36 C3.56,1.3603646 4.3703646,0.55 5.37,0.55 L14.94,0.55 C15.2741323,0.55 15.545,0.820867726 15.545,1.155 C15.545,1.48913227 15.2741323,1.76 14.94,1.76 L5.36,1.76 C5.02862915,1.76 4.76,2.02862915 4.76,2.36 L4.76,4.77 C4.76,5.10137085 4.49137085,5.37 4.16,5.37 Z" id="Shape"></path>
                <path d="M18.54,21.21 L5.36,21.21 C4.3603646,21.21 3.55,20.3996354 3.55,19.4 L3.55,17 C3.55,16.6658677 3.82086773,16.395 4.155,16.395 C4.48913227,16.395 4.76,16.6658677 4.76,17 L4.76,19.41 C4.76,19.7413708 5.02862915,20.01 5.36,20.01 L18.54,20.01 C18.8713708,20.01 19.14,19.7413708 19.14,19.41 L19.14,6.09 C19.14,5.75586773 19.4108677,5.485 19.745,5.485 C20.0791323,5.485 20.35,5.75586773 20.35,6.09 L20.35,19.4 C20.35,20.3996354 19.5396354,21.21 18.54,21.21 Z" id="Shape"></path>
                <path d="M19.74,6.69 L14.93,6.69 C14.5986292,6.69 14.33,6.42137085 14.33,6.09 L14.33,1.28 C14.33,0.945867726 14.6008677,0.675 14.935,0.675 C15.2691323,0.675 15.54,0.945867726 15.54,1.28 L15.54,5.49 L19.75,5.49 C20.0841323,5.49 20.355,5.76086773 20.355,6.095 C20.355,6.42913227 20.0841323,6.7 19.75,6.7 L19.74,6.69 Z" id="Shape"></path>
                <path d="M19.74,6.69 C19.5782647,6.69040769 19.4232146,6.62550298 19.31,6.51 L14.5,1.57 C14.2680404,1.33251756 14.2725176,0.951959595 14.51,0.72 C14.7474824,0.488040405 15.1280404,0.492517558 15.36,0.73 L20.17,5.67 C20.3258212,5.84402466 20.3664784,6.09266449 20.2742034,6.30725748 C20.1819284,6.52185047 19.9734974,6.66338233 19.74,6.67 L19.74,6.69 Z" id="Shape"></path>
                <path d="M1,17.09 L0.92,17.09 C0.763500844,17.0608672 0.624993427,16.970737 0.534968298,16.8394503 C0.444943169,16.7081637 0.410780233,16.5464829 0.44,16.39 C0.44,16.18 1.44,11.3 6.95,7.6 C7.22614237,7.41498461 7.59998461,7.48885763 7.785,7.765 C7.97001539,8.04114237 7.89614237,8.41498461 7.62,8.6 C4.70334239,10.437092 2.56694419,13.2856229 1.62,16.6 C1.56526452,16.895587 1.3002354,17.1050455 1,17.09 Z" id="Shape"></path>
                <path d="M3.1,15.08 C2.60468635,15.0854094 2.11172588,15.0111277 1.64,14.86 C1.4880404,14.8105947 1.36206497,14.7026157 1.29,14.56 C-0.26,11.5 1.84,8.41 1.93,8.28 C2.06087665,8.08317254 2.2951177,7.98152448 2.52826948,8.02038311 C2.76142127,8.05924174 2.95003369,8.23136538 3.01,8.46 L3,8.46 C6.13,4.46 11.76,5.02 12,5.05 C12.2784095,5.07702253 12.5012101,5.29283988 12.5370819,5.57024803 C12.5729536,5.84765619 12.4123783,6.11304801 12.15,6.21 C10.7864194,6.93461097 9.8341426,8.2486053 9.57,9.77 C9.24371495,11.1461245 8.34990828,12.3197 7.11,13 C7.26710797,13.1286371 7.34849516,13.328007 7.32629328,13.5298423 C7.3040914,13.7316775 7.18131322,13.9085893 7,14 C5.81672801,14.6946552 4.47204599,15.0670287 3.1,15.08 Z M2.26,13.79 C3.11474332,13.9370876 3.99221136,13.8788183 4.82,13.62 C4.59216156,13.4922647 4.47313844,13.2318065 4.52568173,12.9759436 C4.57822501,12.7200806 4.79026077,12.5276077 5.05,12.5 C6.68011909,12.2855838 8.01300101,11.0955107 8.41,9.5 C8.67738587,8.29059449 9.2644764,7.17512249 10.11,6.27 C8.11,6.43 4.94,7.19 3.31,10.2 C3.19066486,10.41472 2.95417534,10.5369062 2.71,10.51 C2.53724871,10.4927996 2.38041568,10.4016176 2.28,10.26 C1.82495703,11.3907322 1.81424062,12.6516972 2.25,13.79 L2.26,13.79 Z" id="Shape"></path>
            </g>
        </g>
    </g>
</svg>