<?xml version="1.0" encoding="UTF-8"?>
<svg width="25px" height="17px" viewBox="0 0 25 17" version="1.1" xmlns="http://www.w3.org/2000/svg" xmlns:xlink="http://www.w3.org/1999/xlink">
    <!-- Generator: Sketch 48.2 (47327) - http://www.bohemiancoding.com/sketch -->
    <title>Objects </title>
    <desc>Created with Sketch.</desc>
    <defs></defs>
    <g id="DL-Icons-1" stroke="none" stroke-width="1" fill="none" fill-rule="evenodd" transform="translate(0.000000, -204.000000)">
        <g fill="#A51C30" id="Objects-">
            <g transform="translate(0.000000, 204.000000)">
                <path d="M15.91,9.43 C15.676471,9.4271651 15.4692217,9.27969925 15.39,9.06 L12.65,1.31 C12.5876456,1.14062663 12.6123591,0.951438999 12.7161291,0.803766382 C12.819899,0.656093765 12.9895179,0.568731513 13.17,0.57 L21.03,0.57 C21.2524403,0.571980277 21.4526181,0.70543211 21.54,0.91 L24.32,7.39 C24.3908042,7.54704472 24.3839369,7.72819176 24.301446,7.87942511 C24.2189551,8.03065845 24.0703711,8.13450542 23.9,8.16 L16,9.42 L15.91,9.43 Z M13.91,1.68 L16.24,8.26 L23,7.18 L20.64,1.69 L13.91,1.68 Z" id="Shape" fill-rule="nonzero"></path>
                <path d="M10.35,9.43 L10.28,9.43 L0.9,8.17 C0.725994724,8.15009364 0.571872922,8.04850485 0.484979035,7.89644055 C0.398085149,7.74437625 0.388808957,7.56001855 0.46,7.4 L3.24,0.92 C3.32738192,0.71543211 3.52755967,0.581980277 3.75,0.58 L13.09,0.58 C13.2704821,0.578731513 13.440101,0.666093765 13.5438709,0.813766382 C13.6476409,0.961438999 13.6723544,1.15062663 13.61,1.32 L10.87,9.07 C10.7898947,9.28762563 10.5818947,9.43162563 10.35,9.43 Z M1.77,7.16 L9.98,8.26 L12.31,1.67 L4.12,1.67 L1.77,7.16 Z" id="Shape" fill-rule="nonzero"></path>
                <path d="M13.13,16.89 L13,16.89 L3.62,14.67 C3.42707658,14.6235555 3.27358585,14.4777155 3.21734628,14.2874167 C3.16110671,14.0971179 3.21066243,13.891271 3.34734628,13.7474167 C3.48403013,13.6035624 3.68707658,13.5435555 3.88,13.59 L13.12,15.78 L20.88,13.6 C21.1754723,13.5171573 21.4821573,13.6895277 21.565,13.985 C21.6478427,14.2804723 21.4754723,14.5871573 21.18,14.67 L13.29,16.89 L13.13,16.89 Z" id="Shape" fill-rule="nonzero"></path>
                <path d="M13.13,16.89 C12.8262434,16.89 12.58,16.6437566 12.58,16.34 L12.58,1.14 C12.58,0.833481964 12.828482,0.585 13.135,0.585 C13.441518,0.585 13.69,0.833481964 13.69,1.14 L13.69,16.33 C13.692741,16.4793446 13.6346217,16.6233809 13.5290013,16.7290013 C13.4233809,16.8346217 13.2793446,16.892741 13.13,16.89 Z" id="Shape" fill-rule="nonzero"></path>
                <path d="M21,14.67 C20.6962434,14.67 20.45,14.4237566 20.45,14.12 L20.45,8.07 C20.45,7.76348196 20.698482,7.515 21.005,7.515 C21.311518,7.515 21.56,7.76348196 21.56,8.07 L21.56,14.12 C21.5600244,14.2676183 21.5007074,14.4090501 21.3953894,14.5124874 C21.2900714,14.6159248 21.1475939,14.672684 21,14.67 Z" id="Path"></path>
                <path d="M3.75,14.67 C3.44624339,14.67 3.2,14.4237566 3.2,14.12 L3.2,8.07 C3.2,7.76348196 3.44848196,7.515 3.755,7.515 C4.06151804,7.515 4.31,7.76348196 4.31,8.07 L4.31,14.12 C4.3100244,14.2676183 4.25070744,14.4090501 4.14538942,14.5124874 C4.04007139,14.6159248 3.89759393,14.672684 3.75,14.67 Z" id="Shape" fill-rule="nonzero"></path>
            </g>
        </g>
    </g>
</svg>