<?xml version="1.0" encoding="UTF-8"?>
<svg width="21px" height="21px" viewBox="0 0 21 21" version="1.1" xmlns="http://www.w3.org/2000/svg" xmlns:xlink="http://www.w3.org/1999/xlink">
    <!-- Generator: Sketch 48.2 (47327) - http://www.bohemiancoding.com/sketch -->
    <title>Periodicals </title>
    <desc>Created with Sketch.</desc>
    <defs></defs>
    <g id="DL-Icons-1" stroke="none" stroke-width="1" fill="none" fill-rule="evenodd" transform="translate(-2.000000, -235.000000)">
        <g fill="#A51C30" fill-rule="nonzero" id="Periodicals-">
            <g transform="translate(2.000000, 235.000000)">
                <path d="M17.86,20.25 L13.64,20.25 C13.333482,20.25 13.085,20.001518 13.085,19.695 C13.085,19.388482 13.333482,19.14 13.64,19.14 L17.86,19.14 C18.1648318,19.1483563 18.4596758,19.0309349 18.6753054,18.8153054 C18.8909349,18.5996758 19.0083563,18.3048318 19,18 L19,1.45 C19,1.14348196 19.248482,0.895 19.555,0.895 C19.861518,0.895 20.11,1.14348196 20.11,1.45 L20.11,18 C20.1181535,18.5991995 19.8837198,19.1762453 19.4599826,19.5999826 C19.0362453,20.0237198 18.4591995,20.2581535 17.86,20.25 Z" id="Shape"></path>
                <path d="M2.53,20.25 C1.4059428,20.1292131 0.589256953,19.1250911 0.7,18 L0.7,3.12 C0.7,2.54 0.98,2.54 2.53,2.54 L3.25,2.54 L3.25,1.44 C3.25,1.13348196 3.49848196,0.885 3.805,0.885 C4.11151804,0.885 4.36,1.13348196 4.36,1.44 L4.36,18 C4.47074305,19.1250911 3.6540572,20.1292131 2.53,20.25 Z M1.81,3.66 L1.81,18 C1.81,18.65 2.19,19.11 2.53,19.11 C2.87,19.11 3.25,18.65 3.25,18 L3.25,3.65 L1.81,3.65 L1.81,3.66 Z" id="Shape"></path>
                <path d="M13.64,20.25 L2.37,20.25 C2.06348196,20.25 1.815,20.001518 1.815,19.695 C1.815,19.388482 2.06348196,19.14 2.37,19.14 L13.64,19.14 C13.946518,19.14 14.195,19.388482 14.195,19.695 C14.195,20.001518 13.946518,20.25 13.64,20.25 Z" id="Shape"></path>
                <path d="M19.52,2 L3.81,2 C3.50348196,2 3.255,1.75151804 3.255,1.445 C3.255,1.13848196 3.50348196,0.89 3.81,0.89 L19.52,0.89 C19.826518,0.89 20.075,1.13848196 20.075,1.445 C20.075,1.75151804 19.826518,2 19.52,2 Z" id="Shape"></path>
                <path d="M10.64,11.3 L6,11.3 C5.69348196,11.3 5.445,11.051518 5.445,10.745 C5.445,10.438482 5.69348196,10.19 6,10.19 L10.61,10.19 C10.916518,10.19 11.165,10.438482 11.165,10.745 C11.165,11.051518 10.916518,11.3 10.61,11.3 L10.64,11.3 Z" id="Shape"></path>
                <path d="M10.64,14.07 L6,14.07 C5.75233072,14.010942 5.57757351,13.7896133 5.57757351,13.535 C5.57757351,13.2803867 5.75233072,13.059058 6,13 L10.61,13 C10.916518,13 11.165,13.248482 11.165,13.555 C11.165,13.861518 10.916518,14.11 10.61,14.11 L10.64,14.07 Z" id="Shape"></path>
                <path d="M10.64,5.74 L6,5.74 C5.69348196,5.74 5.445,5.49151804 5.445,5.185 C5.445,4.87848196 5.69348196,4.63 6,4.63 L10.61,4.63 C10.916518,4.63 11.165,4.87848196 11.165,5.185 C11.165,5.49151804 10.916518,5.74 10.61,5.74 L10.64,5.74 Z" id="Shape"></path>
                <path d="M10.64,8.52 L6,8.52 C5.69348196,8.52 5.445,8.27151804 5.445,7.965 C5.445,7.65848196 5.69348196,7.41 6,7.41 L10.61,7.41 C10.916518,7.41 11.165,7.65848196 11.165,7.965 C11.165,8.27151804 10.916518,8.52 10.61,8.52 L10.64,8.52 Z" id="Shape"></path>
                <path d="M14,5.74 L9.36,5.74 C9.05348196,5.74 8.805,5.49151804 8.805,5.185 C8.805,4.87848196 9.05348196,4.63 9.36,4.63 L14,4.63 C14.306518,4.63 14.555,4.87848196 14.555,5.185 C14.555,5.49151804 14.306518,5.74 14,5.74 Z" id="Shape"></path>
                <path d="M14,8.52 L9.36,8.52 C9.05348196,8.52 8.805,8.27151804 8.805,7.965 C8.805,7.65848196 9.05348196,7.41 9.36,7.41 L14,7.41 C14.306518,7.41 14.555,7.65848196 14.555,7.965 C14.555,8.27151804 14.306518,8.52 14,8.52 Z" id="Shape"></path>
                <path d="M17.31,5.74 L12.69,5.74 C12.383482,5.74 12.135,5.49151804 12.135,5.185 C12.135,4.87848196 12.383482,4.63 12.69,4.63 L17.3,4.63 C17.606518,4.63 17.855,4.87848196 17.855,5.185 C17.855,5.49151804 17.606518,5.74 17.3,5.74 L17.31,5.74 Z" id="Shape"></path>
                <path d="M17.31,8.52 L12.69,8.52 C12.383482,8.52 12.135,8.27151804 12.135,7.965 C12.135,7.65848196 12.383482,7.41 12.69,7.41 L17.3,7.41 C17.606518,7.41 17.855,7.65848196 17.855,7.965 C17.855,8.27151804 17.606518,8.52 17.3,8.52 L17.31,8.52 Z" id="Shape"></path>
                <path d="M10.64,16.84 L6,16.84 C5.69348196,16.84 5.445,16.591518 5.445,16.285 C5.445,15.978482 5.69348196,15.73 6,15.73 L10.61,15.73 C10.916518,15.73 11.165,15.978482 11.165,16.285 C11.165,16.591518 10.916518,16.84 10.61,16.84 L10.64,16.84 Z" id="Shape"></path>
                <path d="M17.74,17.22 L12.21,17.22 C11.9062434,17.22 11.66,16.9737566 11.66,16.67 L11.66,16 C11.66,15.15 12.66,14.78 12.98,14.66 C13.61,14.43 13.63,14.34 13.63,14.11 C13.5116833,13.9373453 13.4268773,13.7439877 13.38,13.54 C13.149715,13.3432598 13.0210077,13.0527491 13.03,12.75 C13.0266037,12.5919815 13.0573005,12.4350867 13.12,12.29 L13.12,12.16 C12.8486799,11.3492638 13.2626558,10.468464 14.06,10.16 C14.5908141,9.88930356 15.2191859,9.88930356 15.75,10.16 C16.0555623,10.1995357 16.3363322,10.3488057 16.54,10.58 C16.8503568,11.0664756 16.96471,11.6525357 16.86,12.22 C16.9215028,12.3548901 16.9522445,12.5017674 16.95,12.65 C16.9639598,12.9651999 16.8354425,13.2699697 16.6,13.48 C16.5545359,13.6844527 16.469616,13.8780701 16.35,14.05 C16.35,14.28 16.35,14.37 17,14.6 C17.33,14.72 18.32,15.08 18.32,15.94 L18.32,16.64 C18.3287887,16.7963546 18.2705095,16.9490416 18.1597756,17.0597756 C18.0490416,17.1705095 17.8963546,17.2287887 17.74,17.22 Z M12.74,16.11 L17.17,16.11 L17.17,16 C16.9933232,15.8647785 16.7933502,15.7630973 16.58,15.7 C15.73,15.39 15.2,15.01 15.2,14.09 C15.1971058,13.8747634 15.2637405,13.664338 15.39,13.49 C15.4518569,13.3974127 15.4896629,13.2908685 15.5,13.18 C15.5292279,13.0010229 15.6258333,12.8400138 15.77,12.73 C15.6930462,12.6118505 15.6644078,12.4686587 15.69,12.33 C15.7788085,12.0025819 15.7788085,11.6574181 15.69,11.33 C15.6415438,11.3124282 15.5884562,11.3124282 15.54,11.33 L15.44,11.33 L15.36,11.33 C15.2652543,11.3021017 15.1792023,11.2504706 15.11,11.18 C14.8947831,11.1321439 14.6697837,11.1567532 14.47,11.25 C14.26,11.34 14.11,11.44 14.21,12.03 C14.21,12.21 14.26,12.36 14.26,12.36 C14.2855922,12.4986587 14.2569538,12.6418505 14.18,12.76 C14.3241667,12.8700138 14.4207721,13.0310229 14.45,13.21 C14.4603371,13.3208685 14.4981431,13.4274127 14.56,13.52 C14.6862595,13.694338 14.7528942,13.9047634 14.75,14.12 C14.75,15.04 14.22,15.42 13.37,15.73 C12.86,15.92 12.77,16.06 12.77,16.06 L12.74,16.11 Z" id="Shape"></path>
            </g>
        </g>
    </g>
</svg>