<?xml version="1.0" encoding="UTF-8"?>
<svg width="18px" height="20px" viewBox="0 0 18 20" version="1.1" xmlns="http://www.w3.org/2000/svg" xmlns:xlink="http://www.w3.org/1999/xlink">
    <!-- Generator: Sketch 48.2 (47327) - http://www.bohemiancoding.com/sketch -->
    <title>Posters </title>
    <desc>Created with Sketch.</desc>
    <defs></defs>
    <g id="DL-Icons-1" stroke="none" stroke-width="1" fill="none" fill-rule="evenodd" transform="translate(-3.000000, -305.000000)">
        <g fill="#A51C30" fill-rule="nonzero" id="Posters-">
            <g transform="translate(3.000000, 305.000000)">
                <path d="M2.64,19.57 C1.52869809,19.4490976 0.716618635,18.4639521 0.81,17.35 L0.81,0.78 C0.81,0.22 1.29,0.22 1.81,0.21 L14.38,0.21 C14.94,0.21 15.38,0.21 15.38,0.78 L15.38,15.3 C15.38,15.606518 15.131518,15.855 14.825,15.855 C14.518482,15.855 14.27,15.606518 14.27,15.3 L14.27,1.3 L1.92,1.3 L1.92,17.3 C1.92,17.95 2.3,18.41 2.64,18.41 C2.98,18.41 3.36,17.95 3.36,17.3 L3.36,15.3 C3.36,14.993482 3.60848196,14.745 3.915,14.745 C4.22151804,14.745 4.47,14.993482 4.47,15.3 L4.47,17.3 C4.52883077,17.8437869 4.36898649,18.3886466 4.02570436,18.8144665 C3.68242223,19.2402864 3.18388727,19.5121048 2.64,19.57 Z" id="Shape"></path>
                <path d="M15.75,19.57 L13.75,19.57 C13.443482,19.57 13.195,19.321518 13.195,19.015 C13.195,18.708482 13.443482,18.46 13.75,18.46 L15.75,18.46 C16.3630361,18.46 16.86,17.9630361 16.86,17.35 L16.86,15.35 C16.86,15.043482 17.108482,14.795 17.415,14.795 C17.721518,14.795 17.97,15.043482 17.97,15.35 L17.97,17.35 C17.97,18.5760721 16.9760721,19.57 15.75,19.57 Z" id="Shape"></path>
                <path d="M17.41,15.86 L3.92,15.86 C3.61348196,15.86 3.365,15.611518 3.365,15.305 C3.365,14.998482 3.61348196,14.75 3.92,14.75 L17.41,14.75 C17.716518,14.75 17.965,14.998482 17.965,15.305 C17.965,15.611518 17.716518,15.86 17.41,15.86 Z" id="Shape"></path>
                <path d="M13.75,19.57 L2.48,19.57 C2.17348196,19.57 1.925,19.321518 1.925,19.015 C1.925,18.708482 2.17348196,18.46 2.48,18.46 L13.75,18.46 C14.056518,18.46 14.305,18.708482 14.305,19.015 C14.305,19.321518 14.056518,19.57 13.75,19.57 Z" id="Shape"></path>
            </g>
        </g>
    </g>
</svg>