<?xml version="1.0" encoding="UTF-8"?>
<svg width="20px" height="20px" viewBox="0 0 20 20" version="1.1" xmlns="http://www.w3.org/2000/svg" xmlns:xlink="http://www.w3.org/1999/xlink">
    <!-- Generator: Sketch 48.2 (47327) - http://www.bohemiancoding.com/sketch -->
    <title>Video &amp; Moving Images</title>
    <desc>Created with Sketch.</desc>
    <defs></defs>
    <g id="DL-Icons-1" stroke="none" stroke-width="1" fill="none" fill-rule="evenodd" transform="translate(-2.000000, -339.000000)">
        <g fill="#A51C30" fill-rule="nonzero" id="Video-&amp;-Moving-Images">
            <g transform="translate(2.000000, 339.000000)">
                <path d="M10.39,19.1 C5.14881772,19.1 0.9,14.8511823 0.9,9.61 C0.9,4.36881772 5.14881772,0.12 10.39,0.12 C15.6311823,0.12 19.88,4.36881772 19.88,9.61 C19.8744883,14.8488975 15.6288975,19.0944883 10.39,19.1 Z M10.39,1.23 C5.7618538,1.23 2.01,4.9818538 2.01,9.61 C2.01,14.2381462 5.7618538,17.99 10.39,17.99 C15.0181462,17.99 18.77,14.2381462 18.77,9.61 C18.7644897,4.98413815 15.0158619,1.23551026 10.39,1.23 Z" id="Shape"></path>
                <path d="M8.48,14.35 C8.17624339,14.35 7.93,14.1037566 7.93,13.8 L7.93,5.42 C7.92702295,5.20801664 8.04614916,5.01319484 8.23619669,4.91923876 C8.42624422,4.82528268 8.65337364,4.84892191 8.82,4.98 L14.42,9.17 C14.5624665,9.27348057 14.6467741,9.43891786 14.6467741,9.615 C14.6467741,9.79108214 14.5624665,9.95651943 14.42,10.06 L8.82,14.25 C8.72080463,14.3199345 8.60126255,14.3550939 8.48,14.35 Z M9.03,6.53 L9.03,12.69 L13.15,9.61 L9.03,6.53 Z" id="Shape"></path>
            </g>
        </g>
    </g>
</svg>