<?xml version="1.0" encoding="UTF-8"?>
<svg width="25px" height="19px" viewBox="0 0 25 19" version="1.1" xmlns="http://www.w3.org/2000/svg" xmlns:xlink="http://www.w3.org/1999/xlink">
    <!-- Generator: Sketch 48.2 (47327) - http://www.bohemiancoding.com/sketch -->
    <title>Audio </title>
    <desc>Created with Sketch.</desc>
    <defs></defs>
    <g id="DL-Icons-1" stroke="none" stroke-width="1" fill="none" fill-rule="evenodd" transform="translate(0.000000, -33.000000)">
        <g fill="#A51C30" fill-rule="nonzero" id="Audio-">
            <g transform="translate(0.000000, 33.000000)">
                <path d="M11.45,17 C11.3511741,16.9989747 11.2544504,16.9713393 11.17,16.92 L5.32,13.48 L0.55,13.48 C0.246243388,13.48 3.71994563e-17,13.2337566 0,12.93 L0,5.78 C-3.71994563e-17,5.47624339 0.246243388,5.23 0.55,5.23 L5.32,5.23 L11.17,1.82 C11.3410368,1.71881635 11.5533545,1.71776621 11.7253838,1.81725305 C11.8974131,1.91673988 12.0023961,2.10128922 12,2.3 L12,16.41 C12,16.7137566 11.7537566,16.96 11.45,16.96 L11.45,17 Z M1.11,12.37 L5.47,12.37 C5.56882585,12.3710253 5.66554959,12.3986607 5.75,12.45 L10.89,15.45 L10.89,3.26 L5.75,6.26 C5.66554959,6.31133935 5.56882585,6.3389747 5.47,6.34 L1.11,6.34 L1.11,12.37 Z" id="Shape"></path>
                <path d="M16.63,14.26 C16.3522448,14.2836744 16.1007009,14.0958046 16.0445597,13.8227541 C15.9884185,13.5497035 16.1454358,13.2778306 16.41,13.19 C17.9546158,12.5404366 18.946777,11.0144184 18.9137116,9.33910438 C18.8806462,7.66379032 17.8290435,6.17810962 16.26,5.59 C16.0464582,5.44628195 15.9611541,5.17368323 16.0546793,4.93387493 C16.1482045,4.69406663 16.395541,4.55119773 16.65,4.59 C18.6431107,5.3387541 19.97842,7.22687772 20.0202888,9.35557921 C20.0621577,11.4842807 18.8021265,13.4234514 16.84,14.25 C16.7712942,14.2668056 16.6999918,14.2702009 16.63,14.26 Z" id="Shape"></path>
                <path d="M18.48,18.64 C18.2022448,18.6636744 17.9507009,18.4758046 17.8945597,18.2027541 C17.8384185,17.9297035 17.9954358,17.6578306 18.26,17.57 C21.5925541,16.1605448 23.731446,12.8643583 23.6609863,9.24669108 C23.5905265,5.62902389 21.3249086,2.41862206 17.94,1.14 C17.7168932,1.1059786 17.5372128,0.939114087 17.4868051,0.719129594 C17.4363973,0.499145102 17.5254939,0.27069246 17.7115269,0.142919853 C17.8975599,0.0151472461 18.1427689,0.0139895979 18.33,0.14 C22.0882081,1.61702356 24.5892945,5.20940482 24.6702139,9.24662897 C24.7511334,13.2838531 22.3960045,16.9735691 18.7,18.6 C18.6301793,18.6282571 18.5552987,18.6418717 18.48,18.64 Z" id="Shape"></path>
            </g>
        </g>
    </g>
</svg>