<?xml version="1.0" encoding="UTF-8"?>
<svg width="200px" height="164px" viewBox="0 0 200 164" version="1.1" xmlns="http://www.w3.org/2000/svg" xmlns:xlink="http://www.w3.org/1999/xlink">
    <!-- Generator: Sketch 63.1 (92452) - https://sketch.com -->
    <title>icon-audio-placeholder</title>
    <desc>Created with Sketch.</desc>
    <g id="Page-1" stroke="none" stroke-width="1" fill="none" fill-rule="evenodd">
        <g id="icon-audio-placeholder" fill="#6C6C6C">
            <path d="M181.818182,0 L18.1818182,0 C8.18181818,0 0,8.18181818 0,18.1818182 L0,127.272727 C0,137.272727 8.18181818,145.454545 18.1818182,145.454545 L63.6363636,145.454545 L63.6363636,163.636364 L136.363636,163.636364 L136.363636,145.454545 L181.818182,145.454545 C191.818182,145.454545 199.909091,137.272727 199.909091,127.272727 L200,18.1818182 C200,8.18181818 191.818182,0 181.818182,0 L181.818182,0 Z M181.818182,127.272727 L18.1818182,127.272727 L18.1818182,18.1818182 L181.818182,18.1818182 L181.818182,127.272727 L181.818182,127.272727 Z" id="Icon"></path>
            <g id="audio" transform="translate(61.000000, 41.000000)" fill-rule="nonzero">
                <path d="M32.5073973,2.16438356 C32.2750685,2.07013699 32.0153425,2.1369863 31.84,2.31671233 L12.6739726,21.9178082 L0.77260274,21.9178082 C0.430684932,21.9178082 0,22.169863 0,22.5106849 L0,44.7572603 C0,45.0991781 0.430684932,46.0273973 0.77260274,46.0273973 L12.2575342,46.0273973 L31.8509589,65.2953425 C31.9693151,65.4136986 32.1271233,65.3139726 32.2882192,65.3139726 C32.3682192,65.3139726 32.4328767,65.2175342 32.509589,65.1857534 C32.7408219,65.0893151 32.8767123,64.7824658 32.8767123,64.5326027 L32.8767123,2.73643836 C32.8767123,2.48547945 32.739726,2.25863014 32.5073973,2.16438356 Z" id="Path"></path>
                <path d="M41.3073973,24.4887671 C43.6920548,26.8361644 45.0060274,29.9747945 45.0060274,33.3249315 C45.0060274,36.7419178 43.6438356,39.9265753 41.1715068,42.2915068 L44.5884932,45.8641096 C48.0460274,42.5567123 49.949589,38.1041096 49.949589,33.3249315 C49.949589,28.6389041 48.1117808,24.249863 44.7747945,20.9654795 L41.3073973,24.4887671 Z" id="Path"></path>
                <path d="M56.2027397,9.55945205 L52.7178082,13.0673973 C58.0734247,18.3868493 61.0224658,25.4717808 61.0224658,33.0169863 C61.0224658,40.7912329 57.9178082,48.0273973 52.2794521,53.3928767 L55.6876712,56.9742466 C62.3145205,50.6673973 65.9660277,42.16 65.9660277,33.0169863 C65.9671233,24.1446575 62.499726,15.8147945 56.2027397,9.55945205 Z" id="Path"></path>
                <path d="M65.1331507,0.606027397 L61.6723288,4.1369863 C69.6230137,11.9276712 74.0010959,22.3484932 74.0010959,33.4794521 C74.0010959,44.6158904 69.6208219,55.0389041 61.6668493,62.8273973 L65.1254795,66.3594521 C74.0361644,57.6328767 78.9435618,45.9561644 78.9435618,33.4794521 C78.9446575,21.0093151 74.0394521,9.33479452 65.1331507,0.606027397 Z" id="Path"></path>
            </g>
        </g>
    </g>
</svg>