<?xml version="1.0" encoding="UTF-8"?>
<svg width="200px" height="164px" viewBox="0 0 200 164" version="1.1" xmlns="http://www.w3.org/2000/svg" xmlns:xlink="http://www.w3.org/1999/xlink">
    <!-- Generator: Sketch 63.1 (92452) - https://sketch.com -->
    <title>icon-video-placeholder</title>
    <desc>Created with Sketch.</desc>
    <g id="Page-1" stroke="none" stroke-width="1" fill="none" fill-rule="evenodd">
        <g id="icon-video-placeholder" fill="#6C6C6C">
            <path d="M181.818182,0 L18.1818182,0 C8.18181818,0 0,8.18181818 0,18.1818182 L0,127.272727 C0,137.272727 8.18181818,145.454545 18.1818182,145.454545 L63.6363636,145.454545 L63.6363636,163.636364 L136.363636,163.636364 L136.363636,145.454545 L181.818182,145.454545 C191.818182,145.454545 199.909091,137.272727 199.909091,127.272727 L200,18.1818182 C200,8.18181818 191.818182,0 181.818182,0 L181.818182,0 Z M181.818182,127.272727 L18.1818182,127.272727 L18.1818182,18.1818182 L181.818182,18.1818182 L181.818182,127.272727 L181.818182,127.272727 Z" id="Icon"></path>
            <path d="M135.065,32 L65.268,32 C62.359,32 60,34.359 60,37.268 L60,107.069 C60,109.975 62.359,112.337 65.268,112.337 L135.065,112.337 C137.977,112.337 140.333,109.976 140.333,107.069 L140.333,37.268 C140.333,34.359 137.977,32 135.065,32 Z M96.066,37.282 L104.268,37.282 L104.268,45.485 L96.066,45.485 L96.066,37.282 Z M73.484,106.887 L65.282,106.887 L65.282,98.686 L73.485,98.686 L73.485,106.887 L73.484,106.887 Z M73.484,45.484 L65.282,45.484 L65.282,37.282 L73.485,37.282 L73.485,45.484 L73.484,45.484 Z M88.876,106.887 L80.673,106.887 L80.673,98.686 L88.876,98.686 L88.876,106.887 Z M88.876,45.484 L80.673,45.484 L80.673,37.282 L88.876,37.282 L88.876,45.484 Z M104.268,106.887 L96.066,106.887 L96.066,98.686 L104.268,98.686 L104.268,106.887 Z M89.602,84.387 L89.602,59.946 L110.732,72.167 L89.602,84.387 Z M119.661,106.887 L111.458,106.887 L111.458,98.686 L119.661,98.686 L119.661,106.887 Z M119.661,45.484 L111.458,45.484 L111.458,37.282 L119.661,37.282 L119.661,45.484 Z M135.052,106.887 L126.849,106.887 L126.849,98.686 L135.052,98.686 L135.052,106.887 Z M135.052,45.484 L126.849,45.484 L126.849,37.282 L135.052,37.282 L135.052,45.484 Z" id="Shape" fill-rule="nonzero"></path>
        </g>
    </g>
</svg>