<?xml version="1.0" encoding="UTF-8"?>
<svg width="21px" height="20px" viewBox="0 0 21 20" version="1.1" xmlns="http://www.w3.org/2000/svg" xmlns:xlink="http://www.w3.org/1999/xlink">
    <!-- Generator: Sketch 48.2 (47327) - http://www.bohemiancoding.com/sketch -->
    <title>Maps </title>
    <desc>Created with Sketch.</desc>
    <defs></defs>
    <g id="DL-Icons-1" stroke="none" stroke-width="1" fill="none" fill-rule="evenodd" transform="translate(-2.000000, -167.000000)">
        <g fill="#A51C30" fill-rule="nonzero" id="Maps-">
            <g transform="translate(2.000000, 167.000000)">
                <path d="M0.56,19.69 C0.256243388,19.69 0.01,19.4437566 0.01,19.14 L0.01,3 C0.00740617641,2.74423735 0.181468487,2.52044295 0.43,2.46 L7,0.87 C7.1637125,0.829513283 7.33695013,0.866372355 7.47,0.97 C7.60473319,1.07593493 7.68238047,1.23862446 7.68,1.41 L7.68,17.54 C7.68259382,17.7957627 7.50853151,18.0195571 7.26,18.08 L0.7,19.69 L0.56,19.69 Z M1.11,3.44 L1.11,18.44 L6.56,17.11 L6.56,2.11 L1.11,3.44 Z" id="Shape"></path>
                <path d="M13.67,19.69 L13.54,19.69 L7,18.07 C6.75146849,18.0095571 6.57740618,17.7857627 6.58,17.53 L6.58,1.41 C6.57745675,1.23801644 6.65551761,1.07474634 6.79097033,0.968739865 C6.92642305,0.862733388 7.10366821,0.826198777 7.27,0.87 L13.83,2.48 C14.0785315,2.54044295 14.2525938,2.76423735 14.25,3.02 L14.25,19.15 C14.25,19.2958691 14.1920537,19.4357637 14.0889087,19.5389087 C13.9857637,19.6420537 13.8458691,19.7 13.7,19.7 L13.67,19.69 Z M7.67,17.09 L13.12,18.42 L13.12,3.42 L7.67,2.09 L7.67,17.09 Z" id="Shape"></path>
                <path d="M13.67,19.69 C13.3662434,19.69 13.12,19.4437566 13.12,19.14 L13.12,3 C13.1174062,2.74423735 13.2914685,2.52044295 13.54,2.46 L20.1,0.85 C20.2637125,0.809513283 20.4369501,0.846372355 20.57,0.95 C20.7047332,1.05593493 20.7823805,1.21862446 20.78,1.39 L20.78,17.52 C20.7825938,17.7757627 20.6085315,17.9995571 20.36,18.06 L13.8,19.67 L13.67,19.69 Z M14.22,3.44 L14.22,18.44 L19.67,17.11 L19.67,2.11 L14.22,3.44 Z" id="Shape"></path>
            </g>
        </g>
    </g>
</svg>