<?xml version="1.0" encoding="UTF-8"?>
<svg width="19px" height="20px" viewBox="0 0 19 20" version="1.1" xmlns="http://www.w3.org/2000/svg" xmlns:xlink="http://www.w3.org/1999/xlink">
    <!-- Generator: Sketch 48.2 (47327) - http://www.bohemiancoding.com/sketch -->
    <title>Photographs </title>
    <desc>Created with Sketch.</desc>
    <defs></defs>
    <g id="DL-Icons-1" stroke="none" stroke-width="1" fill="none" fill-rule="evenodd" transform="translate(-3.000000, -270.000000)">
        <g fill="#A51C30" fill-rule="nonzero" id="Photographs-">
            <g transform="translate(2.000000, 270.000000)">
                <path d="M18.16,19.52 L2.62,19.52 C1.72113546,19.4930896 1.0049821,18.7592535 1,17.86 L1,2.33 C1.00545998,1.41547846 1.74547846,0.675459976 2.66,0.67 L18.16,0.67 C19.0745215,0.675459976 19.81454,1.41547846 19.82,2.33 L19.82,17.86 C19.81454,18.7745215 19.0745215,19.51454 18.16,19.52 Z M2.62,1.77 C2.31848207,1.77533785 2.07533785,2.01848207 2.07,2.32 L2.07,17.85 C2.07533785,18.1515179 2.31848207,18.3946622 2.62,18.4 L18.16,18.4 C18.4615179,18.3946622 18.7046622,18.1515179 18.71,17.85 L18.71,2.33 C18.7046622,2.02848207 18.4615179,1.78533785 18.16,1.78 L2.62,1.77 Z" id="Shape"></path>
                <path d="M1.51,15.27 C1.26755734,15.2761852 1.04967806,15.1228419 0.97367728,14.8925365 C0.897676496,14.6622311 0.981494399,14.4093278 1.18,14.27 L6.18,10.62 C6.39700482,10.4606436 6.69747077,10.4818031 6.89,10.67 L9.1,12.84 L14.1,8.21 C14.3115312,8.02380932 14.6284688,8.02380932 14.84,8.21 L19.61,12.39 C19.8419595,12.591584 19.8665838,12.9430404 19.6649999,13.1749999 C19.463416,13.4069595 19.1119596,13.4315839 18.88,13.23 L14.48,9.38 L9.48,14.03 C9.26613607,14.2396286 8.92386393,14.2396286 8.71,14.03 L6.46,11.82 L1.81,15.2 C1.71870961,15.251434 1.61462636,15.2757201 1.51,15.27 Z" id="Shape"></path>
                <path d="M6.45,8.8 C5.27363348,8.8 4.32,7.84636652 4.32,6.67 C4.32,5.49363348 5.27363348,4.54 6.45,4.54 C7.62636652,4.54 8.58,5.49363348 8.58,6.67 C8.58,7.23491112 8.35558993,7.77668496 7.95613744,8.17613744 C7.55668496,8.57558993 7.01491112,8.8 6.45,8.8 Z M6.45,5.66 C5.89771525,5.66 5.45,6.10771525 5.45,6.66 C5.45,7.21228475 5.89771525,7.66 6.45,7.66 C7.00228475,7.66 7.45,7.21228475 7.45,6.66 C7.45,6.10771525 7.00228475,5.66 6.45,5.66 Z" id="Shape"></path>
            </g>
        </g>
    </g>
</svg>